<!DOCTYPE svg PUBLIC "-//W3C//DTD SVG 20010904//EN" "http://www.w3.org/TR/2001/REC-SVG-20010904/DTD/svg10.dtd">
<svg version="1.0" xmlns="http://www.w3.org/2000/svg" width="828px" height="432px" viewBox="0 0 8280 4320" preserveAspectRatio="xMidYMid meet">
<g id="layer101" fill="#375658" stroke="none">
 <path d="M0 2160 l0 -2160 4140 0 4140 0 0 2160 0 2160 -4140 0 -4140 0 0 -2160z"/>
 </g>
<g id="layer102" fill="#435f61" stroke="none">
 <path d="M0 2160 l0 -2160 4140 0 4140 0 0 2160 0 2160 -4140 0 -4140 0 0 -2160z m2635 580 l0 -25 130 0 130 0 0 25 c0 21 5 26 33 28 l32 3 0 -160 0 -161 -80 0 -80 0 0 -60 0 -60 105 0 105 0 0 -30 0 -30 -105 0 -105 0 0 -55 0 -55 90 0 90 0 0 -120 0 -120 -255 0 -255 0 0 183 c0 159 -6 246 -25 396 -3 20 -20 77 -39 126 -31 82 -33 91 -19 108 9 9 22 17 30 17 25 0 76 -138 97 -260 1 -8 5 -32 9 -52 4 -21 9 -54 12 -73 l6 -35 94 0 95 0 0 60 0 60 -80 0 -80 0 0 161 0 160 33 -3 c27 -2 32 -7 32 -28z m692 10 c5 -19 14 -20 229 -20 217 0 224 1 224 20 0 16 7 20 35 20 l35 0 0 -130 0 -130 -260 0 -260 0 0 -30 0 -30 240 0 240 0 0 -95 0 -95 -280 0 -280 0 0 248 c0 137 3 252 7 255 3 4 20 7 36 7 20 0 30 -6 34 -20z m2161 -152 l2 -168 193 -2 192 -3 3 -37 3 -38 -195 0 -196 0 0 -175 0 -175 175 0 175 0 0 -40 0 -40 -390 0 -390 0 0 40 0 40 175 0 175 0 0 175 0 175 -196 0 -195 0 3 38 3 37 193 3 192 2 0 171 0 170 38 -3 37 -3 3 -167z m672 142 l0 -30 250 0 250 0 0 30 c0 28 3 30 35 30 l35 0 0 -200 0 -200 -320 0 -320 0 0 200 0 200 35 0 c32 0 35 -2 35 -30z m-5657 -19 c66 -74 94 -157 102 -308 l5 -93 -33 0 -34 0 -7 78 c-14 152 -43 235 -100 284 l-28 24 23 27 c13 15 27 27 30 27 4 0 23 -18 42 -39z m536 28 c40 -14 51 -41 51 -122 0 -60 -1 -63 -29 -73 l-29 -11 -6 68 c-6 61 -10 70 -31 75 -58 14 -58 15 -56 -178 l2 -178 -35 0 -36 0 0 193 c0 105 4 197 8 204 19 30 104 42 161 22z m235 -9 c32 -11 83 -33 114 -51 l57 -31 74 36 73 35 19 -22 c10 -12 18 -24 19 -27 0 -3 -27 -19 -60 -34 -33 -16 -60 -34 -60 -41 0 -6 10 -21 23 -33 30 -28 66 -101 74 -147 l6 -35 -107 0 c-96 0 -125 -7 -96 -25 23 -14 9 -35 -24 -35 -28 0 -36 5 -46 30 -12 29 -14 30 -81 30 l-69 0 0 30 c0 30 0 30 56 30 l55 0 -32 60 c-18 33 -30 62 -28 63 2 2 30 14 62 27 39 15 55 26 48 33 -6 6 -47 23 -92 39 -45 15 -84 30 -87 33 -6 6 26 55 37 55 4 0 34 -9 65 -20z m768 -7 c16 -27 16 -27 -30 -68 -25 -22 -65 -66 -88 -98 l-43 -58 18 -42 c37 -88 73 -274 68 -347 -2 -21 3 -25 31 -28 28 -3 32 -7 32 -33 l0 -29 -126 0 -126 0 6 -27 c17 -94 18 -113 2 -114 -64 -5 -59 -10 -73 86 -15 105 -59 267 -84 310 -17 29 -17 31 2 54 19 23 20 23 39 6 11 -10 20 -26 20 -35 0 -10 6 -23 14 -29 12 -10 17 -2 31 46 9 32 29 85 44 118 26 59 26 60 9 95 -10 19 -49 65 -87 101 -66 63 -69 68 -55 88 8 11 22 21 30 21 16 0 117 -96 150 -144 l21 -29 23 34 c28 42 131 147 145 148 6 1 18 -11 27 -26z m270 -3 c16 -19 18 -42 18 -181 l0 -158 45 -20 c41 -18 45 -23 45 -55 0 -20 -2 -36 -5 -36 -3 0 -24 9 -45 20 l-40 20 0 -90 0 -90 45 0 45 0 0 -40 0 -40 -45 0 -45 0 0 -90 0 -90 -35 0 -35 0 0 90 0 89 -57 3 -58 3 0 35 0 35 58 3 57 3 0 103 0 104 -65 23 c-70 24 -70 25 -55 63 l9 25 56 -19 55 -19 0 122 c0 67 -4 128 -9 136 -6 9 -26 14 -55 14 -50 0 -56 9 -30 46 15 21 23 23 72 19 42 -4 60 -10 74 -28z m1909 11 c23 -19 24 -24 27 -190 3 -143 6 -171 18 -171 8 0 28 -7 44 -15 25 -13 30 -22 30 -50 0 -38 -10 -43 -50 -20 -14 8 -28 14 -32 15 -5 0 -8 -38 -8 -85 l0 -85 40 0 40 0 0 -40 0 -40 -40 0 -40 0 0 -85 0 -85 -35 0 -35 0 0 85 0 85 -60 0 -60 0 0 40 0 40 60 0 61 0 -3 107 -3 107 -63 14 -63 14 7 36 c4 20 8 38 9 40 1 1 27 -7 58 -17 l57 -20 0 123 c0 142 -5 152 -70 143 -37 -5 -40 -3 -40 18 0 48 9 55 70 55 42 0 64 -5 81 -19z m3416 -8 c57 -42 73 -105 36 -145 -10 -11 -17 -23 -15 -27 1 -3 -1 -7 -5 -7 -41 -8 -51 -18 -55 -55 -2 -22 0 -45 4 -52 4 -7 8 -8 8 -2 0 5 7 -1 16 -13 8 -12 20 -20 25 -17 5 4 9 2 9 -4 0 -5 16 -19 34 -31 29 -17 34 -25 27 -42 -12 -33 -35 -37 -28 -5 5 16 2 29 -8 37 -8 7 -15 9 -15 4 0 -5 -8 1 -18 12 -9 12 -26 25 -37 28 -19 5 -20 1 -21 -69 0 -41 3 -75 8 -75 5 0 6 -5 3 -10 -4 -6 -2 -9 3 -8 5 2 21 -12 36 -30 15 -17 31 -30 36 -27 4 3 13 -2 20 -11 7 -8 19 -13 27 -10 15 6 17 -7 4 -32 -5 -9 -12 -25 -15 -35 -9 -28 -28 -8 -24 24 3 15 1 26 -3 24 -4 -3 -14 7 -23 20 -9 14 -21 23 -26 20 -5 -3 -12 0 -16 6 -5 8 -3 9 7 4 8 -5 10 -4 6 0 -32 35 -47 -15 -47 -157 0 -37 -5 -70 -10 -73 -18 -11 -32 48 -26 107 5 53 4 57 -15 55 -11 -1 -30 -14 -41 -29 -11 -16 -24 -25 -30 -22 -8 5 -9 -3 -5 -24 8 -41 -8 -50 -25 -15 -13 26 -12 30 17 58 16 16 33 28 37 27 4 -1 17 11 28 26 12 15 24 25 27 22 8 -7 12 21 16 103 2 50 0 67 -10 67 -7 0 -13 -5 -13 -11 0 -5 -5 -7 -10 -4 -6 3 -13 -1 -16 -9 -3 -9 -10 -14 -15 -11 -4 3 -13 -4 -19 -15 -6 -11 -15 -18 -20 -15 -4 3 -11 -1 -14 -7 -3 -10 -9 -8 -19 5 -8 9 -26 17 -41 17 -14 0 -26 3 -26 8 0 11 54 9 62 -2 4 -6 13 -4 24 5 14 11 16 11 10 0 -6 -8 0 -7 18 4 14 10 26 22 26 27 0 5 4 7 9 3 6 -3 14 2 19 11 5 9 13 14 18 12 5 -1 13 14 18 34 11 43 -3 133 -20 133 -6 0 -29 12 -50 28 -21 15 -35 27 -30 27 4 0 1 12 -9 26 -10 15 -14 32 -9 42 4 9 6 20 6 25 -1 4 3 7 9 7 5 0 8 4 5 9 -3 4 4 17 16 27 13 12 18 13 13 4 -5 -8 4 -5 20 7 38 28 81 27 122 -4z m-7311 -20 c26 -61 104 -283 104 -297 0 -16 -50 -40 -60 -29 -4 4 -24 58 -44 118 -34 100 -53 148 -77 197 -13 26 -12 27 24 37 17 5 33 10 34 10 2 1 10 -16 19 -36z m444 -173 l0 -210 -35 0 -35 0 0 210 0 210 35 0 35 0 0 -210z m4160 159 l0 -41 -130 4 c-105 2 -129 0 -125 -10 3 -8 5 -54 5 -102 l0 -89 108 -3 107 -3 3 -32 3 -33 -260 0 -261 0 0 35 0 35 110 0 110 0 0 100 0 100 -130 0 -130 0 0 40 0 40 295 0 295 0 0 -41z m2870 -313 c0 -8 -51 -13 -56 -5 -3 5 9 9 25 9 17 0 31 -2 31 -4z m48 -59 c-3 -35 -23 -29 -22 6 1 15 -3 27 -7 27 -5 0 -9 5 -9 10 0 6 8 5 20 -2 13 -9 19 -22 18 -41z m-3355 -29 c56 -57 115 -155 101 -168 -5 -5 -21 -11 -35 -15 -22 -6 -28 -2 -44 35 -10 23 -43 67 -72 98 -56 60 -61 70 -41 90 21 21 38 13 91 -40z m394 17 c5 -3 -79 -119 -118 -164 -39 -44 -54 -49 -84 -27 -19 14 -19 15 5 39 32 32 54 58 60 71 3 6 20 35 38 63 l34 53 31 -16 c18 -9 33 -17 34 -19z m1916 6 l37 -19 -56 -83 c-62 -93 -115 -162 -127 -167 -4 -2 -14 -17 -22 -33 -17 -31 -37 -36 -73 -16 l-22 13 22 24 c12 13 36 44 54 70 l32 47 -61 8 c-71 8 -110 11 -260 19 -59 3 -112 8 -117 11 -5 3 -21 3 -35 -1 -25 -6 -25 -8 44 -78 67 -68 171 -194 171 -208 0 -3 -14 -11 -32 -17 -26 -9 -35 -8 -50 5 -10 10 -18 21 -18 26 0 15 -146 183 -188 216 -21 17 -50 36 -65 43 -19 9 -27 20 -27 38 0 46 13 55 66 47 27 -3 125 -9 219 -12 93 -3 173 -8 177 -10 4 -2 56 -7 116 -10 l110 -5 33 55 c19 31 34 56 34 56 1 0 17 -8 38 -19z m-5510 -66 c40 -41 76 -75 80 -75 4 0 7 32 7 71 l0 70 33 -3 c32 -3 32 -4 35 -60 3 -66 10 -67 76 -11 43 36 56 40 56 19 0 -7 7 -19 16 -27 17 -14 18 -14 -106 -76 l-55 -28 93 -3 92 -3 0 -34 0 -35 -85 0 -85 0 0 -90 0 -90 -35 0 -35 0 0 90 0 89 -92 3 -93 3 -3 33 -3 32 65 0 c36 0 66 4 66 9 0 10 -98 103 -124 118 -17 10 -18 14 -6 42 7 17 16 31 21 31 4 0 41 -34 82 -75z m-890 -18 c-16 -16 -49 -47 -75 -69 l-48 -40 -30 22 -30 21 77 74 78 73 28 -26 27 -26 -27 -29z m637 63 l25 -19 -18 -34 c-11 -19 -31 -48 -45 -65 -15 -17 -39 -48 -55 -70 -27 -40 -27 -40 -57 -25 -17 8 -30 17 -30 20 0 3 11 21 25 39 14 18 25 35 25 37 0 8 -83 18 -193 24 l-108 5 20 -35 c11 -20 34 -55 51 -79 l31 -43 177 -5 177 -5 3 -32 3 -33 -128 0 -129 0 -16 -37 c-8 -21 -18 -45 -21 -54 -3 -10 -14 -15 -29 -13 -12 1 -28 3 -35 3 -9 1 -9 10 -1 34 5 17 12 40 15 50 5 16 -6 17 -126 17 l-131 0 0 36 0 36 85 -3 c47 -2 85 -3 85 -1 0 8 -113 147 -130 159 -11 8 -20 24 -20 36 0 45 8 47 130 36 63 -5 142 -12 175 -14 33 -3 84 -7 112 -10 52 -6 53 -6 74 29 24 42 26 42 59 16z m2150 -35 l0 -55 340 0 340 0 0 55 0 55 35 0 36 0 -3 -87 -3 -88 -181 -3 -181 -2 -11 -25 c-11 -24 -10 -25 12 -19 21 5 29 -1 52 -35 14 -23 35 -41 45 -41 9 0 24 -3 33 -6 9 -3 16 -1 16 5 0 18 52 91 64 91 7 0 21 -6 31 -14 18 -13 18 -15 2 -39 -9 -15 -17 -29 -17 -31 0 -3 35 -6 78 -8 l77 -3 3 -32 3 -33 -136 0 -137 0 7 -29 c6 -26 3 -30 -25 -36 -17 -4 -32 -5 -34 -3 -1 1 -19 38 -39 80 -38 78 -75 118 -108 118 -16 0 -17 2 -4 28 l15 27 -188 5 -187 5 -3 88 -3 87 36 0 35 0 0 -55z m2086 -14 c-7 -14 -32 -65 -54 -113 l-42 -88 -34 17 -35 16 30 58 c16 32 40 83 53 114 l25 55 35 -17 c33 -15 35 -18 22 -42z m2066 37 c-7 -7 -12 -25 -12 -40 0 -29 -14 -38 -23 -14 -3 7 0 19 6 25 6 6 8 11 4 11 -4 0 1 8 11 18 9 10 19 17 21 15 3 -2 -1 -9 -7 -15z m-1605 -93 l52 -100 -25 -22 c-14 -13 -29 -23 -33 -23 -4 0 -29 45 -56 100 -26 55 -52 103 -56 106 -5 3 -9 9 -9 13 0 11 42 30 60 28 8 -1 38 -47 67 -102z m1996 90 c11 -7 25 -11 32 -9 7 3 16 0 20 -6 11 -18 -48 -8 -67 12 -21 21 -11 23 15 3z m107 1 c0 -3 -5 -8 -12 -12 -7 -4 -8 -3 -4 4 7 12 16 16 16 8z m-33 -23 c-4 -3 -7 0 -7 7 0 7 3 10 7 7 3 -4 3 -10 0 -14z m-337 -11 c0 -13 -12 -22 -22 -16 -10 6 -1 24 13 24 5 0 9 -4 9 -8z m-12 -36 c-2 -1 -10 -7 -20 -14 -11 -9 -18 -10 -23 -2 -4 6 -1 9 7 8 7 -2 12 2 11 9 -2 7 4 10 13 6 8 -3 14 -6 12 -7z m-118 -16 c0 -5 -2 -10 -4 -10 -3 0 -8 5 -11 10 -3 6 -1 10 4 10 6 0 11 -4 11 -10z m65 -9 c7 -12 -12 -24 -25 -16 -11 7 -4 25 10 25 5 0 11 -4 15 -9z m377 -23 c-9 -9 -15 -9 -24 0 -9 9 -7 12 12 12 19 0 21 -3 12 -12z m25 -5 c-4 -3 -7 0 -7 7 0 7 3 10 7 7 3 -4 3 -10 0 -14z m-3377 -53 l0 -60 203 2 202 3 3 58 3 57 34 0 35 0 0 -90 0 -90 -113 0 -114 0 -26 -61 c-26 -60 -27 -61 -59 -55 -17 3 -33 8 -35 10 -3 2 5 22 16 45 12 22 21 45 21 51 0 6 -42 10 -115 10 l-115 0 0 90 0 90 30 0 30 0 0 -60z m3418 5 c1 -14 -7 -34 -18 -45 -11 -11 -20 -16 -20 -12 0 5 3 12 8 16 7 8 9 13 11 46 2 29 16 25 19 -5z m-4663 -22 c13 -16 25 -33 25 -39 0 -17 21 -30 56 -37 29 -6 33 -3 55 41 25 48 56 64 88 43 11 -7 10 -14 -8 -39 -11 -17 -21 -33 -21 -36 0 -3 33 -6 73 -8 l72 -3 3 -32 3 -33 -126 0 -127 0 6 -27 c8 -29 -5 -43 -39 -43 -15 0 -28 15 -47 53 -14 28 -41 73 -61 99 l-36 47 27 20 c15 11 28 21 30 21 2 0 14 -12 27 -27z m4185 13 c0 -3 -5 -8 -12 -12 -7 -4 -8 -3 -4 4 7 12 16 16 16 8z m45 -6 c3 -5 -1 -10 -9 -10 -8 0 -18 5 -21 10 -3 6 1 10 9 10 8 0 18 -4 21 -10z m318 -36 c-4 -11 -8 -12 -20 -3 -11 10 -11 14 -1 20 17 10 28 2 21 -17z m-7343 -96 c-74 -67 -97 -76 -126 -46 l-23 23 77 62 77 61 25 -25 25 -25 -55 -50z m6940 72 c0 -16 -4 -30 -8 -30 -5 0 -8 14 -8 30 0 17 3 30 8 30 4 0 8 -13 8 -30z m470 12 c0 -5 -13 -9 -30 -10 -16 0 -30 4 -30 9 0 5 14 9 30 9 17 0 30 -4 30 -8z m-6212 -81 c25 -42 25 -44 7 -57 -30 -22 -38 -17 -70 39 -39 68 -40 72 -13 84 26 12 32 7 76 -66z m-270 61 c10 -7 9 -18 -7 -53 -31 -72 -42 -82 -75 -69 -26 9 -27 12 -14 28 8 9 23 36 33 60 18 41 36 51 63 34z m6136 -21 c3 -5 -1 -14 -9 -21 -13 -10 -15 -9 -15 9 0 21 14 28 24 12z m-84 -25 c0 -3 -4 -8 -10 -11 -5 -3 -10 -1 -10 4 0 6 5 11 10 11 6 0 10 -2 10 -4z m50 -4 c0 -4 -10 -9 -22 -9 -18 -2 -20 0 -8 7 18 12 30 13 30 2z m230 -63 c0 -10 -4 -21 -10 -24 -6 -4 -10 6 -10 23 0 31 -21 57 -35 44 -5 -4 -5 -1 -1 6 10 17 56 -23 56 -49z m-120 35 c0 -8 -4 -12 -10 -9 -5 3 -10 10 -10 16 0 5 5 9 10 9 6 0 10 -7 10 -16z m-18 -46 c-9 -9 -12 -7 -12 12 0 19 3 21 12 12 9 -9 9 -15 0 -24z m18 -33 c0 -8 -2 -15 -4 -15 -2 0 -6 7 -10 15 -3 8 -1 15 4 15 6 0 10 -7 10 -15z m17 -22 c-4 -3 -7 0 -7 7 0 7 3 10 7 7 3 -4 3 -10 0 -14z m37 -4 c-3 -5 -10 -7 -15 -3 -5 3 -7 10 -3 15 3 5 10 7 15 3 5 -3 7 -10 3 -15z m23 4 c-4 -3 -7 0 -7 7 0 7 3 10 7 7 3 -4 3 -10 0 -14z"/>
 <path d="M2640 2580 l0 -70 125 0 125 0 0 70 0 70 -125 0 -125 0 0 -70z"/>
 <path d="M2540 2215 l0 -55 95 0 95 0 0 55 0 55 -95 0 -95 0 0 -55z"/>
 <path d="M2540 2040 l0 -50 185 0 185 0 0 50 0 50 -185 0 -185 0 0 -50z"/>
 <path d="M3328 2618 c-3 -24 -4 -43 -4 -43 1 0 103 1 229 3 l227 3 0 39 0 40 -224 0 -224 0 -4 -42z"/>
 <path d="M3528 2393 l-198 -3 0 -35 0 -35 200 0 200 0 0 24 c0 13 3 31 6 40 3 9 2 15 -2 14 -5 -2 -98 -4 -206 -5z"/>
 <path d="M6160 2540 l0 -110 250 0 250 0 0 110 0 110 -250 0 -250 0 0 -110z"/>
 <path d="M1368 2559 l-37 -19 18 -42 18 -43 81 -3 c45 -2 82 0 82 4 0 15 -63 105 -81 114 -24 13 -37 11 -81 -11z"/>
 <path d="M1811 2348 c-12 -35 -25 -70 -28 -78 -15 -36 -29 -123 -25 -150 4 -30 5 -30 71 -30 37 0 70 2 72 5 5 5 -15 168 -26 215 -18 75 -27 100 -34 100 -5 0 -18 -28 -30 -62z"/>
 <path d="M7511 2694 c-38 -31 -40 -62 -6 -98 33 -36 95 -37 130 -1 76 75 -41 169 -124 99z m79 -14 c0 -5 -7 -10 -16 -10 -8 0 -12 5 -9 10 3 6 10 10 16 10 5 0 9 -4 9 -10z m-5 -70 c-3 -5 -10 -10 -16 -10 -5 0 -9 5 -9 10 0 6 7 10 16 10 8 0 12 -4 9 -10z"/>
 <path d="M7685 2180 c3 -5 8 -10 11 -10 3 0 2 5 -1 10 -3 6 -8 10 -11 10 -3 0 -2 -4 1 -10z"/>
 <path d="M7474 2098 c-4 -7 -3 -8 4 -4 12 7 16 16 8 16 -3 0 -8 -5 -12 -12z"/>
 </g>
<g id="layer103" fill="#657c7e" stroke="none">
 <path d="M0 2160 l0 -2160 4140 0 4140 0 0 2160 0 2160 -4140 0 -4140 0 0 -2160z m2638 583 c3 -22 6 -23 127 -23 121 0 124 1 127 23 2 17 11 23 36 25 l32 3 0 -160 0 -161 -80 0 -80 0 0 -60 0 -60 105 0 105 0 0 -30 0 -30 -105 0 -105 0 0 -55 0 -55 90 0 90 0 0 -120 0 -120 -254 0 -253 0 -6 243 c-6 263 -20 363 -71 486 l-26 65 22 23 c12 13 25 23 28 23 22 0 91 -214 105 -325 3 -27 9 -62 11 -77 l6 -28 94 0 94 0 0 60 0 60 -80 0 -80 0 0 161 0 160 33 -3 c24 -2 33 -8 35 -25z m689 7 c5 -19 14 -20 229 -20 217 0 224 1 224 20 0 16 7 20 35 20 l35 0 0 -130 0 -130 -260 0 -260 0 0 -30 0 -30 240 0 240 0 0 -95 0 -95 -280 0 -280 0 0 248 c0 137 3 252 7 255 3 4 20 7 36 7 20 0 30 -6 34 -20z m2161 -152 l2 -168 193 -2 192 -3 3 -37 3 -38 -195 0 -196 0 0 -175 0 -175 175 0 175 0 0 -40 0 -40 -390 0 -390 0 0 40 0 40 175 0 175 0 0 175 0 175 -196 0 -195 0 3 38 3 37 193 3 192 2 0 171 0 170 38 -3 37 -3 3 -167z m672 147 l0 -25 250 0 250 0 0 25 c0 22 4 25 35 25 l35 0 0 -205 0 -205 -320 0 -320 0 0 205 0 205 35 0 c31 0 35 -3 35 -25z m-5655 -26 c20 -23 46 -62 57 -87 24 -54 47 -177 48 -254 l0 -58 -34 0 -33 0 -7 78 c-14 153 -32 205 -93 273 l-36 40 23 24 c13 14 27 25 31 25 3 0 23 -19 44 -41z m534 30 c40 -14 51 -41 51 -122 0 -60 -1 -63 -29 -73 l-29 -11 -6 68 c-7 62 -10 70 -32 75 -53 13 -54 9 -54 -181 l0 -175 -35 0 -35 0 0 193 c0 105 4 197 8 204 19 30 104 42 161 22z m235 -9 c32 -11 83 -34 115 -51 l58 -32 71 38 72 37 20 -23 c10 -13 19 -27 20 -30 0 -3 -27 -18 -60 -34 -33 -16 -60 -34 -60 -40 0 -6 10 -21 23 -33 30 -28 66 -101 74 -147 l6 -35 -102 0 -103 0 7 -30 c6 -29 5 -30 -28 -30 -29 0 -37 5 -47 30 -12 29 -14 30 -81 30 l-69 0 0 30 c0 30 0 30 56 30 l55 0 -32 60 c-18 33 -30 62 -28 63 2 2 30 14 63 27 l58 23 -33 18 c-19 10 -62 28 -96 39 -35 12 -63 25 -63 29 0 11 30 51 39 51 4 0 34 -9 65 -20z m461 -30 c29 -28 66 -69 81 -92 l29 -41 20 29 c32 46 137 154 149 154 6 0 19 -12 28 -27 16 -27 16 -27 -30 -68 -25 -22 -65 -66 -88 -98 l-43 -58 16 -37 c30 -70 53 -166 65 -269 l12 -103 28 0 c25 0 28 -3 28 -35 l0 -35 -126 0 -126 0 6 -27 c20 -107 20 -111 -13 -118 -40 -9 -51 0 -51 37 0 57 -41 233 -74 314 l-32 81 22 28 22 28 21 -34 c12 -19 21 -39 21 -46 0 -6 4 -14 9 -18 5 -3 17 21 26 52 9 32 29 85 45 119 l27 60 -35 53 c-19 29 -59 73 -88 99 -51 45 -52 47 -38 74 8 15 19 28 25 28 6 0 34 -23 64 -50z m576 21 c17 -20 19 -42 19 -182 l0 -158 45 -20 c41 -18 45 -23 45 -55 0 -20 -2 -36 -5 -36 -3 0 -24 9 -45 20 l-40 20 0 -90 0 -90 45 0 45 0 0 -40 0 -40 -45 0 -45 0 0 -90 0 -90 -35 0 -35 0 0 90 0 89 -57 3 -58 3 0 35 0 35 58 3 57 3 0 104 0 104 -62 19 c-34 11 -64 24 -65 29 -2 6 1 22 6 36 l10 26 56 -19 55 -19 0 119 c0 65 -3 125 -6 134 -4 12 -20 16 -56 16 -47 0 -50 1 -44 23 3 12 6 28 6 36 0 10 15 12 66 9 55 -3 70 -8 85 -27z m1913 8 l26 -20 0 -163 0 -162 45 -22 c41 -20 45 -25 45 -57 0 -38 -10 -43 -50 -20 -14 8 -28 14 -32 15 -5 0 -8 -38 -8 -85 l0 -85 40 0 40 0 0 -40 0 -40 -40 0 -40 0 0 -90 0 -90 -35 0 -35 0 0 90 0 90 -60 0 -60 0 0 40 0 40 60 0 60 0 0 104 0 104 -66 18 -66 18 6 34 c3 19 7 36 9 38 2 2 29 -5 60 -15 l57 -20 0 123 c0 142 -5 152 -70 143 -37 -5 -40 -3 -40 18 0 48 9 55 70 55 43 0 64 -5 84 -21z m3420 1 c45 -27 60 -60 53 -112 -6 -45 -51 -98 -82 -98 -10 0 -15 -11 -15 -33 0 -27 8 -40 38 -64 52 -42 79 -55 87 -43 8 14 61 13 88 -1 30 -16 37 -28 37 -65 0 -55 -64 -88 -118 -60 -32 16 -42 34 -42 70 0 16 -13 32 -40 50 -22 14 -42 26 -45 26 -3 0 -5 -31 -5 -69 l0 -69 57 -48 c54 -46 60 -49 106 -46 60 5 87 -16 87 -64 0 -43 -32 -74 -77 -74 -43 0 -83 38 -83 77 0 22 -11 38 -44 65 l-44 37 -6 -63 c-4 -34 -6 -90 -5 -123 2 -49 5 -60 17 -55 21 7 42 -25 42 -65 0 -62 -86 -89 -135 -43 -14 13 -25 33 -25 45 0 25 35 75 53 75 8 0 12 25 13 75 0 41 -1 75 -3 75 -2 0 -23 -15 -47 -32 -36 -27 -44 -39 -43 -65 2 -58 -54 -91 -111 -67 -55 23 -63 97 -13 123 27 15 84 14 100 -1 7 -7 11 -8 9 -2 -2 6 22 31 52 55 l55 45 3 72 c2 40 0 72 -3 72 -4 0 -26 -14 -50 -30 -29 -20 -42 -35 -38 -45 10 -29 -17 -74 -53 -85 -63 -21 -123 31 -103 90 14 40 96 69 114 40 6 -10 70 26 111 63 12 10 24 36 28 57 7 44 -2 100 -16 100 -6 0 -25 7 -43 16 -42 19 -69 73 -61 118 6 32 46 78 76 89 34 12 94 6 124 -13z m-7318 -27 c26 -61 104 -283 104 -297 0 -16 -50 -40 -60 -29 -4 4 -16 33 -25 63 -10 30 -38 104 -62 164 -24 60 -42 110 -41 111 44 33 65 30 84 -12z m444 -173 l0 -210 -35 0 -35 0 0 210 0 210 35 0 35 0 0 -210z m4160 160 l0 -40 -125 0 -125 0 0 -100 0 -99 108 -3 107 -3 3 -32 3 -33 -260 0 -261 0 0 35 0 35 110 0 110 0 0 100 0 100 -130 0 -130 0 0 40 0 40 295 0 295 0 0 -40z m-437 -402 c56 -57 115 -155 101 -168 -5 -5 -21 -11 -35 -15 -23 -6 -28 -2 -45 37 -10 23 -45 69 -77 101 -56 56 -58 59 -41 78 26 29 41 24 97 -33z m394 17 c5 -3 -79 -119 -118 -164 -38 -44 -54 -49 -84 -28 -17 13 -15 17 30 72 26 33 61 81 77 107 l30 48 31 -16 c18 -9 33 -17 34 -19z m1917 10 l37 -16 -25 -42 c-52 -87 -199 -277 -215 -277 -9 1 -26 6 -38 13 -21 12 -21 13 32 82 l55 70 -53 7 c-64 8 -356 28 -410 28 l-40 0 71 -72 c68 -70 172 -196 172 -210 0 -5 -54 -28 -66 -28 -2 0 -29 35 -60 78 -71 95 -179 203 -222 221 -25 10 -32 19 -32 40 0 51 1 51 205 40 105 -5 245 -14 313 -19 180 -15 166 -18 204 45 18 30 34 55 34 55 1 0 18 -7 38 -15z m-5509 -70 c41 -41 77 -75 80 -75 3 0 5 32 5 71 l0 70 33 -3 c31 -3 32 -4 37 -61 l5 -58 59 42 c46 33 60 39 67 28 30 -45 31 -44 -54 -90 l-82 -44 88 -3 87 -3 0 -34 0 -35 -85 0 -85 0 0 -90 0 -90 -35 0 -35 0 0 90 0 89 -92 3 -93 3 -3 33 -3 32 65 0 c36 0 66 4 66 9 0 10 -98 103 -124 118 -17 10 -18 14 -6 42 7 17 17 31 22 31 5 0 43 -34 83 -75z m-941 -62 l-78 -73 -28 26 -27 27 77 72 77 73 28 -26 29 -27 -78 -72z m686 108 c20 -16 22 -23 13 -43 -13 -29 -133 -188 -142 -188 -3 0 -17 9 -30 19 l-25 19 28 37 c15 20 26 38 25 40 -6 6 -195 25 -248 25 l-50 0 49 -77 50 -78 177 -5 178 -5 3 -32 3 -33 -129 0 -129 0 -20 -52 c-18 -50 -21 -53 -52 -51 -44 2 -47 7 -28 48 9 20 17 40 17 45 0 6 -53 10 -130 10 l-130 0 0 35 0 34 80 3 80 3 -35 52 c-19 28 -50 67 -70 86 -34 33 -43 60 -27 84 8 12 106 8 355 -17 55 -6 103 -7 108 -4 5 3 16 18 24 35 18 34 22 35 55 10z m2150 -36 l0 -55 340 0 340 0 0 55 0 55 35 0 36 0 -3 -87 -3 -88 -181 -3 -181 -2 -11 -25 c-11 -24 -10 -25 12 -19 21 5 29 -1 52 -35 22 -33 32 -41 58 -41 26 0 36 7 59 45 31 48 42 53 72 31 18 -13 18 -15 2 -39 -9 -15 -17 -29 -17 -31 0 -3 35 -6 78 -8 l77 -3 3 -32 3 -33 -136 0 -137 0 7 -29 c6 -26 3 -30 -25 -36 -17 -4 -32 -5 -34 -3 -1 1 -19 38 -39 80 -38 78 -75 118 -109 118 -17 0 -18 2 -3 30 l15 30 -187 2 -188 3 -3 88 -3 87 36 0 35 0 0 -55z m2083 -24 c-9 -20 -33 -71 -54 -113 l-39 -78 -34 17 -35 16 30 58 c16 32 40 83 53 114 l25 55 34 -16 35 -17 -15 -36z m464 -46 c29 -55 53 -103 53 -107 0 -8 -60 -42 -64 -36 -9 10 -116 222 -113 223 18 14 45 24 57 22 8 -1 38 -47 67 -102z m-1295 -82 l3 -58 195 0 195 0 3 58 3 57 34 0 35 0 0 -90 0 -90 -113 0 -114 0 -26 -61 c-26 -60 -27 -61 -59 -55 -17 3 -33 8 -35 10 -3 2 5 22 16 45 12 22 21 45 21 51 0 6 -42 10 -115 10 l-115 0 0 90 0 90 35 0 34 0 3 -57z m-1242 -43 c29 -40 40 -49 66 -50 27 0 34 6 58 50 15 28 29 50 30 50 12 0 66 -23 66 -28 0 -4 -9 -18 -20 -32 -11 -14 -20 -28 -20 -32 0 -4 33 -8 73 -10 l72 -3 3 -32 3 -33 -126 0 -127 0 6 -27 c8 -29 -5 -43 -39 -43 -15 0 -28 15 -47 53 -14 28 -41 73 -61 99 l-36 47 27 20 c15 11 29 20 32 21 3 0 21 -22 40 -50z m-2804 -96 c-26 -24 -60 -53 -76 -64 l-27 -19 -26 27 -26 27 77 62 77 61 25 -25 25 -24 -49 -45z m1192 -3 c25 -42 25 -44 7 -57 -30 -22 -38 -17 -70 39 -39 68 -40 72 -13 84 26 12 32 7 76 -66z m-270 61 c10 -7 9 -18 -7 -53 -31 -71 -42 -82 -74 -70 l-27 10 33 61 c31 57 47 69 75 52z"/>
 <path d="M2640 2580 l0 -70 125 0 125 0 0 70 0 70 -125 0 -125 0 0 -70z"/>
 <path d="M2540 2215 l0 -55 95 0 95 0 0 55 0 55 -95 0 -95 0 0 -55z"/>
 <path d="M2540 2040 l0 -50 185 0 185 0 0 50 0 50 -185 0 -185 0 0 -50z"/>
 <path d="M3330 2620 l0 -40 225 0 225 0 0 40 0 40 -225 0 -225 0 0 -40z"/>
 <path d="M3330 2355 l0 -35 200 0 200 0 0 35 0 35 -200 0 -200 0 0 -35z"/>
 <path d="M6160 2540 l0 -110 250 0 250 0 0 110 0 110 -250 0 -250 0 0 -110z"/>
 <path d="M1381 2562 c-23 -9 -43 -21 -42 -27 0 -5 10 -27 21 -47 l21 -38 75 0 c41 0 74 3 74 8 0 18 -86 123 -99 121 -4 0 -26 -8 -50 -17z"/>
 <path d="M1812 2353 c-36 -100 -60 -199 -55 -226 5 -26 7 -27 75 -27 l71 0 -7 73 c-11 108 -41 237 -55 237 -5 0 -18 -26 -29 -57z"/>
 <path d="M7511 2694 c-38 -31 -40 -62 -6 -98 33 -36 95 -37 130 -1 76 75 -41 169 -124 99z m79 -14 c0 -5 -7 -10 -16 -10 -8 0 -12 5 -9 10 3 6 10 10 16 10 5 0 9 -4 9 -10z m-5 -70 c-3 -5 -10 -10 -16 -10 -5 0 -9 5 -9 10 0 6 7 10 16 10 8 0 12 -4 9 -10z"/>
 <path d="M7742 2364 c-24 -17 -29 -53 -10 -72 20 -20 65 -14 82 10 20 29 20 34 -4 58 -24 24 -38 25 -68 4z"/>
 <path d="M7350 2282 c-46 -37 0 -96 59 -77 29 9 38 51 16 75 -23 25 -46 25 -75 2z"/>
 <path d="M7732 2148 c-18 -18 -14 -53 8 -73 25 -23 67 -13 82 20 9 21 8 28 -7 45 -20 22 -64 27 -83 8z"/>
 <path d="M7347 2072 c-22 -24 -21 -45 1 -65 23 -21 56 -22 76 -1 21 21 20 47 -2 67 -24 22 -55 21 -75 -1z"/>
 <path d="M7536 1954 c-35 -34 -10 -84 42 -84 22 0 52 30 52 53 0 19 -37 47 -62 47 -9 0 -24 -7 -32 -16z"/>
 </g>
<g id="layer104" fill="#ffffff" stroke="none">
 <path d="M0 2160 l0 -2160 4140 0 4140 0 0 2160 0 2160 -4140 0 -4140 0 0 -2160z m2638 583 c3 -22 6 -23 127 -23 121 0 124 1 127 23 2 17 11 23 36 25 l32 3 0 -160 0 -161 -80 0 -80 0 0 -60 0 -60 105 0 105 0 0 -30 0 -30 -105 0 -105 0 0 -55 0 -55 90 0 90 0 0 -120 0 -120 -254 0 -253 0 -6 243 c-6 263 -20 363 -71 486 l-26 65 22 23 c12 13 25 23 28 23 22 0 91 -214 105 -325 3 -27 9 -62 11 -77 l6 -28 94 0 94 0 0 60 0 60 -80 0 -80 0 0 161 0 160 33 -3 c24 -2 33 -8 35 -25z m689 7 c5 -19 14 -20 229 -20 217 0 224 1 224 20 0 16 7 20 35 20 l35 0 0 -130 0 -130 -260 0 -260 0 0 -30 0 -30 240 0 240 0 0 -95 0 -95 -280 0 -280 0 0 248 c0 137 3 252 7 255 3 4 20 7 36 7 20 0 30 -6 34 -20z m2161 -152 l2 -168 193 -2 192 -3 3 -37 3 -38 -195 0 -196 0 0 -175 0 -175 175 0 175 0 0 -40 0 -40 -390 0 -390 0 0 40 0 40 175 0 175 0 0 175 0 175 -196 0 -195 0 3 38 3 37 193 3 192 2 0 171 0 170 38 -3 37 -3 3 -167z m672 147 l0 -25 250 0 250 0 0 25 c0 22 4 25 35 25 l35 0 0 -205 0 -205 -320 0 -320 0 0 205 0 205 35 0 c31 0 35 -3 35 -25z m-5655 -26 c20 -23 46 -62 57 -87 24 -54 47 -177 48 -254 l0 -58 -34 0 -33 0 -7 78 c-14 153 -32 205 -93 273 l-36 40 23 24 c13 14 27 25 31 25 3 0 23 -19 44 -41z m534 30 c40 -14 51 -41 51 -122 0 -60 -1 -63 -29 -73 l-29 -11 -6 68 c-7 62 -10 70 -32 75 -53 13 -54 9 -54 -181 l0 -175 -35 0 -35 0 0 193 c0 105 4 197 8 204 19 30 104 42 161 22z m235 -9 c32 -11 83 -34 115 -51 l58 -32 71 38 72 37 20 -23 c10 -13 19 -27 20 -30 0 -3 -27 -18 -60 -34 -33 -16 -60 -34 -60 -40 0 -6 10 -21 23 -33 30 -28 66 -101 74 -147 l6 -35 -102 0 -103 0 7 -30 c6 -29 5 -30 -28 -30 -29 0 -37 5 -47 30 -12 29 -14 30 -81 30 l-69 0 0 30 c0 30 0 30 56 30 l55 0 -32 60 c-18 33 -30 62 -28 63 2 2 30 14 63 27 l58 23 -33 18 c-19 10 -62 28 -96 39 -35 12 -63 25 -63 29 0 11 30 51 39 51 4 0 34 -9 65 -20z m461 -30 c29 -28 66 -69 81 -92 l29 -41 20 29 c32 46 137 154 149 154 6 0 19 -12 28 -27 16 -27 16 -27 -30 -68 -25 -22 -65 -66 -88 -98 l-43 -58 16 -37 c30 -70 53 -166 65 -269 l12 -103 28 0 c25 0 28 -3 28 -35 l0 -35 -126 0 -126 0 6 -27 c20 -107 20 -111 -13 -118 -40 -9 -51 0 -51 37 0 57 -41 233 -74 314 l-32 81 22 28 22 28 21 -34 c12 -19 21 -39 21 -46 0 -6 4 -14 9 -18 5 -3 17 21 26 52 9 32 29 85 45 119 l27 60 -35 53 c-19 29 -59 73 -88 99 -51 45 -52 47 -38 74 8 15 19 28 25 28 6 0 34 -23 64 -50z m576 21 c17 -20 19 -42 19 -182 l0 -158 45 -20 c41 -18 45 -23 45 -55 0 -20 -2 -36 -5 -36 -3 0 -24 9 -45 20 l-40 20 0 -90 0 -90 45 0 45 0 0 -40 0 -40 -45 0 -45 0 0 -90 0 -90 -35 0 -35 0 0 90 0 89 -57 3 -58 3 0 35 0 35 58 3 57 3 0 104 0 104 -62 19 c-34 11 -64 24 -65 29 -2 6 1 22 6 36 l10 26 56 -19 55 -19 0 119 c0 65 -3 125 -6 134 -4 12 -20 16 -56 16 -47 0 -50 1 -44 23 3 12 6 28 6 36 0 10 15 12 66 9 55 -3 70 -8 85 -27z m1913 8 l26 -20 0 -163 0 -162 45 -22 c41 -20 45 -25 45 -57 0 -38 -10 -43 -50 -20 -14 8 -28 14 -32 15 -5 0 -8 -38 -8 -85 l0 -85 40 0 40 0 0 -40 0 -40 -40 0 -40 0 0 -90 0 -90 -35 0 -35 0 0 90 0 90 -60 0 -60 0 0 40 0 40 60 0 60 0 0 104 0 104 -66 18 -66 18 6 34 c3 19 7 36 9 38 2 2 29 -5 60 -15 l57 -20 0 123 c0 142 -5 152 -70 143 -37 -5 -40 -3 -40 18 0 48 9 55 70 55 43 0 64 -5 84 -21z m3415 7 c39 -21 61 -58 61 -107 0 -33 -6 -47 -34 -75 -19 -19 -41 -34 -50 -34 -12 0 -16 -10 -16 -34 0 -31 7 -40 57 -76 38 -27 60 -37 67 -30 5 5 26 10 46 10 48 0 80 -30 80 -74 0 -58 -63 -91 -118 -62 -32 16 -42 34 -42 70 0 16 -13 32 -40 50 -22 14 -42 26 -45 26 -3 0 -5 -31 -5 -69 l0 -68 59 -52 c54 -46 62 -50 87 -41 77 30 142 -64 82 -120 -48 -45 -138 -8 -138 57 0 22 -11 38 -44 65 l-43 37 -7 -52 c-9 -80 -7 -177 4 -177 23 0 50 -41 50 -75 0 -63 -85 -92 -135 -45 -33 31 -32 65 3 100 25 24 30 39 35 99 3 39 3 71 0 71 -3 0 -25 -16 -48 -35 -33 -26 -41 -40 -38 -57 6 -30 -28 -74 -61 -80 -61 -12 -116 44 -96 96 12 33 43 48 91 45 35 -3 48 3 100 44 l59 48 0 69 c0 39 -3 70 -6 70 -3 0 -25 -14 -49 -30 -29 -20 -42 -35 -38 -45 10 -29 -17 -74 -53 -85 -63 -21 -123 31 -103 90 13 37 49 54 97 46 34 -5 46 -1 93 32 l54 38 3 72 c2 61 0 72 -14 72 -54 0 -111 76 -100 134 6 32 46 78 76 89 29 11 91 7 119 -7z m-7313 -33 c26 -61 104 -283 104 -297 0 -16 -50 -40 -60 -29 -4 4 -16 33 -25 63 -10 30 -38 104 -62 164 -24 60 -42 110 -41 111 44 33 65 30 84 -12z m444 -173 l0 -210 -35 0 -35 0 0 210 0 210 35 0 35 0 0 -210z m4160 160 l0 -40 -125 0 -125 0 0 -100 0 -99 108 -3 107 -3 3 -32 3 -33 -260 0 -261 0 0 35 0 35 110 0 110 0 0 100 0 100 -130 0 -130 0 0 40 0 40 295 0 295 0 0 -40z m-437 -402 c56 -57 115 -155 101 -168 -5 -5 -21 -11 -35 -15 -23 -6 -28 -2 -45 37 -10 23 -45 69 -77 101 -56 56 -58 59 -41 78 26 29 41 24 97 -33z m394 17 c5 -3 -79 -119 -118 -164 -38 -44 -54 -49 -84 -28 -17 13 -15 17 30 72 26 33 61 81 77 107 l30 48 31 -16 c18 -9 33 -17 34 -19z m1917 10 l37 -16 -25 -42 c-52 -87 -199 -277 -215 -277 -9 1 -26 6 -38 13 -21 12 -21 13 32 82 l55 70 -53 7 c-64 8 -356 28 -410 28 l-40 0 71 -72 c68 -70 172 -196 172 -210 0 -5 -54 -28 -66 -28 -2 0 -29 35 -60 78 -71 95 -179 203 -222 221 -25 10 -32 19 -32 40 0 51 1 51 205 40 105 -5 245 -14 313 -19 180 -15 166 -18 204 45 18 30 34 55 34 55 1 0 18 -7 38 -15z m-5509 -70 c41 -41 77 -75 80 -75 3 0 5 32 5 71 l0 70 33 -3 c31 -3 32 -4 37 -61 l5 -58 59 42 c46 33 60 39 67 28 30 -45 31 -44 -54 -90 l-82 -44 88 -3 87 -3 0 -34 0 -35 -85 0 -85 0 0 -90 0 -90 -35 0 -35 0 0 90 0 89 -92 3 -93 3 -3 33 -3 32 65 0 c36 0 66 4 66 9 0 10 -98 103 -124 118 -17 10 -18 14 -6 42 7 17 17 31 22 31 5 0 43 -34 83 -75z m-941 -62 l-78 -73 -28 26 -27 27 77 72 77 73 28 -26 29 -27 -78 -72z m686 108 c20 -16 22 -23 13 -43 -13 -29 -133 -188 -142 -188 -3 0 -17 9 -30 19 l-25 19 28 37 c15 20 26 38 25 40 -6 6 -195 25 -248 25 l-50 0 49 -77 50 -78 177 -5 178 -5 3 -32 3 -33 -129 0 -129 0 -20 -52 c-18 -50 -21 -53 -52 -51 -44 2 -47 7 -28 48 9 20 17 40 17 45 0 6 -53 10 -130 10 l-130 0 0 35 0 34 80 3 80 3 -35 52 c-19 28 -50 67 -70 86 -34 33 -43 60 -27 84 8 12 106 8 355 -17 55 -6 103 -7 108 -4 5 3 16 18 24 35 18 34 22 35 55 10z m2150 -36 l0 -55 340 0 340 0 0 55 0 55 35 0 36 0 -3 -87 -3 -88 -181 -3 -181 -2 -11 -25 c-11 -24 -10 -25 12 -19 21 5 29 -1 52 -35 22 -33 32 -41 58 -41 26 0 36 7 59 45 31 48 42 53 72 31 18 -13 18 -15 2 -39 -9 -15 -17 -29 -17 -31 0 -3 35 -6 78 -8 l77 -3 3 -32 3 -33 -136 0 -137 0 7 -29 c6 -26 3 -30 -25 -36 -17 -4 -32 -5 -34 -3 -1 1 -19 38 -39 80 -38 78 -75 118 -109 118 -17 0 -18 2 -3 30 l15 30 -187 2 -188 3 -3 88 -3 87 36 0 35 0 0 -55z m2083 -24 c-9 -20 -33 -71 -54 -113 l-39 -78 -34 17 -35 16 30 58 c16 32 40 83 53 114 l25 55 34 -16 35 -17 -15 -36z m464 -46 c29 -55 53 -103 53 -107 0 -8 -60 -42 -64 -36 -9 10 -116 222 -113 223 18 14 45 24 57 22 8 -1 38 -47 67 -102z m-1295 -82 l3 -58 195 0 195 0 3 58 3 57 34 0 35 0 0 -90 0 -90 -113 0 -114 0 -26 -61 c-26 -60 -27 -61 -59 -55 -17 3 -33 8 -35 10 -3 2 5 22 16 45 12 22 21 45 21 51 0 6 -42 10 -115 10 l-115 0 0 90 0 90 35 0 34 0 3 -57z m-1242 -43 c29 -40 40 -49 66 -50 27 0 34 6 58 50 15 28 29 50 30 50 12 0 66 -23 66 -28 0 -4 -9 -18 -20 -32 -11 -14 -20 -28 -20 -32 0 -4 33 -8 73 -10 l72 -3 3 -32 3 -33 -126 0 -127 0 6 -27 c8 -29 -5 -43 -39 -43 -15 0 -28 15 -47 53 -14 28 -41 73 -61 99 l-36 47 27 20 c15 11 29 20 32 21 3 0 21 -22 40 -50z m-2804 -96 c-26 -24 -60 -53 -76 -64 l-27 -19 -26 27 -26 27 77 62 77 61 25 -25 25 -24 -49 -45z m1192 -3 c25 -42 25 -44 7 -57 -30 -22 -38 -17 -70 39 -39 68 -40 72 -13 84 26 12 32 7 76 -66z m-270 61 c10 -7 9 -18 -7 -53 -31 -71 -42 -82 -74 -70 l-27 10 33 61 c31 57 47 69 75 52z"/>
 <path d="M2640 2580 l0 -70 125 0 125 0 0 70 0 70 -125 0 -125 0 0 -70z"/>
 <path d="M2540 2215 l0 -55 95 0 95 0 0 55 0 55 -95 0 -95 0 0 -55z"/>
 <path d="M2540 2040 l0 -50 185 0 185 0 0 50 0 50 -185 0 -185 0 0 -50z"/>
 <path d="M3330 2620 l0 -40 225 0 225 0 0 40 0 40 -225 0 -225 0 0 -40z"/>
 <path d="M3330 2355 l0 -35 200 0 200 0 0 35 0 35 -200 0 -200 0 0 -35z"/>
 <path d="M6160 2540 l0 -110 250 0 250 0 0 110 0 110 -250 0 -250 0 0 -110z"/>
 <path d="M1381 2562 c-23 -9 -43 -21 -42 -27 0 -5 10 -27 21 -47 l21 -38 75 0 c41 0 74 3 74 8 0 18 -86 123 -99 121 -4 0 -26 -8 -50 -17z"/>
 <path d="M1812 2353 c-36 -100 -60 -199 -55 -226 5 -26 7 -27 75 -27 l71 0 -7 73 c-11 108 -41 237 -55 237 -5 0 -18 -26 -29 -57z"/>
 <path d="M7516 2699 c-33 -26 -36 -79 -6 -109 29 -29 94 -27 125 5 72 71 -38 168 -119 104z m78 -25 c3 -8 10 -12 16 -9 6 4 10 -5 10 -19 0 -32 -17 -34 -22 -3 -2 14 -11 23 -26 25 -12 2 -20 8 -17 13 9 14 32 11 39 -7z m-24 -54 c18 -4 21 -8 12 -14 -7 -4 -19 -3 -26 3 -7 6 -15 8 -19 5 -9 -9 -19 35 -11 48 6 9 10 5 14 -12 4 -15 15 -26 30 -30z"/>
 <path d="M7742 2364 c-24 -17 -29 -53 -10 -72 20 -20 65 -14 82 10 20 29 20 34 -4 58 -24 24 -38 25 -68 4z"/>
 <path d="M7350 2282 c-46 -37 0 -96 59 -77 29 9 38 51 16 75 -23 25 -46 25 -75 2z"/>
 <path d="M7732 2148 c-18 -18 -14 -53 8 -73 25 -23 67 -13 82 20 9 21 8 28 -7 45 -20 22 -64 27 -83 8z"/>
 <path d="M7347 2072 c-22 -24 -21 -45 1 -65 23 -21 56 -22 76 -1 21 21 20 47 -2 67 -24 22 -55 21 -75 -1z"/>
 <path d="M7536 1954 c-35 -34 -10 -84 42 -84 22 0 52 30 52 53 0 19 -37 47 -62 47 -9 0 -24 -7 -32 -16z"/>
 </g>

</svg>