<!DOCTYPE svg PUBLIC "-//W3C//DTD SVG 20010904//EN" "http://www.w3.org/TR/2001/REC-SVG-20010904/DTD/svg10.dtd">
<svg version="1.0" xmlns="http://www.w3.org/2000/svg" width="814px" height="1024px" viewBox="0 0 8140 10240" preserveAspectRatio="xMidYMid meet">
<g id="layer101" fill="#1a4748" stroke="none">
 <path d="M3975 9563 c-427 -55 -795 -321 -974 -704 -76 -162 -120 -373 -106 -513 47 -500 401 -935 871 -1071 49 -14 114 -28 146 -32 31 -3 61 -9 68 -13 13 -8 15 -360 2 -370 -4 -3 -5 -59 -2 -125 3 -66 2 -121 -2 -123 -4 -2 -8 -145 -8 -318 l0 -314 -30 -66 c-16 -36 -48 -88 -71 -116 -40 -47 -259 -215 -791 -607 -115 -84 -208 -156 -208 -161 0 -16 -74 3 -105 26 -45 34 -172 91 -245 111 -404 106 -865 -268 -864 -702 0 -103 22 -186 81 -305 39 -80 60 -109 137 -185 103 -103 197 -158 332 -197 355 -101 749 137 855 517 31 111 31 233 0 340 -32 108 -41 175 -25 175 7 0 201 142 430 317 317 240 426 318 455 323 25 5 36 3 34 -4 -2 -6 -7 -229 -10 -496 -4 -267 -10 -579 -14 -695 -6 -198 -8 -213 -32 -266 -15 -32 -57 -88 -95 -129 -69 -73 -380 -357 -756 -689 -108 -96 -194 -179 -191 -184 13 -21 -79 2 -126 32 -109 70 -286 119 -393 107 -360 -37 -647 -324 -684 -684 -8 -72 16 -200 55 -292 74 -178 228 -329 411 -403 101 -41 147 -50 250 -51 118 0 194 19 320 81 79 39 109 61 180 132 198 199 267 472 179 709 -12 31 -24 73 -26 92 -4 31 0 38 29 59 18 14 203 174 412 355 329 288 383 332 418 337 l39 6 -5 -256 c-3 -141 -8 -434 -11 -651 -3 -217 -8 -454 -11 -526 l-6 -131 -41 -13 c-84 -24 -197 -92 -272 -162 -185 -173 -274 -413 -230 -623 63 -303 297 -537 600 -600 390 -81 820 289 819 705 0 116 -27 219 -87 334 -78 152 -254 299 -416 347 -23 7 -45 18 -47 23 -2 6 4 479 14 1051 11 572 18 1091 18 1153 l-1 113 40 -7 c22 -3 49 -14 60 -23 10 -9 179 -167 375 -351 195 -184 379 -356 409 -382 50 -45 53 -50 48 -85 -3 -21 -13 -65 -23 -98 -23 -80 -24 -229 -1 -315 9 -36 38 -108 64 -160 38 -79 61 -110 132 -181 71 -71 102 -94 181 -132 52 -26 124 -55 160 -64 76 -20 233 -22 300 -4 336 90 572 376 573 696 2 358 -304 682 -681 721 -116 12 -296 -41 -417 -123 -34 -23 -76 -42 -97 -45 -20 -2 -35 -1 -33 3 3 3 -136 141 -308 306 -595 573 -682 661 -719 733 l-33 65 3 575 c2 316 4 626 5 688 l1 112 33 0 c27 0 96 -49 430 -307 218 -170 401 -307 405 -306 13 5 9 -88 -8 -167 -29 -137 -3 -286 79 -445 31 -60 63 -102 127 -165 247 -248 590 -285 880 -95 169 110 285 281 325 484 76 374 -255 786 -663 826 -157 16 -365 -58 -495 -174 -35 -31 -112 -58 -119 -41 -2 4 -194 157 -428 341 -233 183 -442 351 -463 373 -21 22 -51 63 -65 91 l-27 50 0 302 c0 167 3 303 8 303 4 0 7 8 7 18 0 14 15 23 63 36 211 59 451 231 600 430 166 224 258 539 229 789 -46 410 -312 778 -693 956 -177 83 -384 124 -534 104z m195 -418 c19 -3 42 -8 50 -9 8 -2 28 -8 44 -15 16 -6 36 -13 45 -14 9 -2 31 -11 49 -20 17 -10 32 -15 32 -12 0 2 8 -2 18 -10 9 -8 20 -15 24 -15 5 0 19 -10 32 -21 13 -12 28 -22 33 -23 4 0 21 -16 36 -33 16 -18 34 -31 40 -30 7 1 11 -3 10 -10 -1 -6 13 -25 32 -42 20 -17 35 -34 36 -38 0 -5 8 -17 17 -28 10 -11 17 -23 17 -27 0 -4 8 -16 17 -28 10 -11 15 -20 13 -20 -3 0 2 -15 12 -32 9 -18 18 -40 20 -49 1 -9 8 -29 14 -45 7 -16 13 -36 15 -44 1 -8 6 -31 9 -50 8 -40 9 -188 2 -240 -3 -19 -16 -70 -30 -112 -14 -42 -22 -80 -19 -83 3 -3 0 -5 -7 -5 -7 0 -9 -4 -6 -10 3 -5 1 -10 -5 -10 -6 0 -8 -4 -5 -10 3 -5 1 -10 -5 -10 -6 0 -8 -4 -5 -10 3 -5 2 -10 -2 -10 -5 0 -17 -17 -28 -37 -11 -21 -22 -40 -25 -43 -3 -3 -36 -37 -73 -77 -37 -40 -67 -69 -67 -65 -1 4 -10 -4 -20 -17 -11 -13 -20 -19 -20 -15 0 5 -7 0 -16 -11 -8 -11 -17 -19 -19 -17 -3 1 -29 -10 -58 -25 -28 -15 -59 -28 -68 -30 -9 -1 -29 -8 -45 -14 -16 -7 -36 -13 -44 -15 -8 -1 -31 -6 -50 -9 -19 -4 -73 -7 -120 -7 -47 0 -101 3 -120 7 -19 3 -42 8 -50 9 -8 2 -28 8 -44 15 -16 6 -36 13 -45 14 -9 2 -31 11 -48 20 -18 10 -33 15 -33 12 0 -2 -9 3 -20 13 -12 9 -24 17 -28 17 -4 0 -16 7 -27 17 -11 9 -23 16 -26 15 -3 -1 -20 15 -38 35 -18 21 -38 36 -44 35 -7 -1 -11 3 -10 10 1 6 -13 25 -32 42 -20 17 -35 33 -34 37 1 3 -8 17 -20 30 -11 13 -21 27 -21 32 0 4 -7 15 -15 25 -8 9 -12 17 -10 17 3 0 -2 15 -12 33 -9 17 -18 39 -20 48 -1 9 -8 29 -14 45 -7 16 -13 36 -15 44 -1 8 -6 31 -9 50 -4 19 -7 73 -7 120 0 47 3 101 7 120 3 19 8 44 10 55 2 11 4 22 6 25 1 3 3 10 4 15 1 6 9 26 18 45 8 19 13 38 11 42 -3 5 0 8 6 8 6 0 8 5 5 10 -3 6 -2 10 3 10 5 0 12 10 16 23 7 27 7 28 23 47 7 8 14 20 15 25 1 6 11 18 22 27 12 10 17 17 13 18 -5 0 5 12 22 26 17 14 30 31 28 37 -1 7 3 11 10 10 6 -1 27 15 47 37 20 22 36 38 36 35 0 -7 74 47 78 58 2 4 8 5 13 1 5 -3 9 0 9 6 0 6 5 8 10 5 6 -3 10 -1 10 5 0 6 5 8 10 5 6 -3 10 -2 10 2 0 5 10 9 22 10 11 1 25 8 29 15 5 7 9 9 9 5 0 -5 6 -5 13 0 6 4 17 8 22 10 6 1 21 5 35 8 14 3 41 8 60 11 18 3 35 6 36 7 5 5 161 -1 194 -8z m1770 -3418 c8 -1 21 -6 28 -10 6 -5 17 -5 22 -2 6 3 10 2 10 -3 0 -9 47 -27 63 -24 4 1 7 -3 7 -8 0 -6 12 -16 28 -23 15 -6 35 -22 45 -34 10 -13 24 -22 30 -20 7 1 11 -3 10 -10 -2 -6 7 -20 20 -30 12 -10 36 -45 52 -78 17 -33 33 -62 38 -63 4 -2 5 -8 1 -13 -3 -5 -2 -15 2 -21 11 -18 14 -43 14 -118 0 -75 -3 -100 -14 -118 -4 -6 -5 -16 -2 -21 4 -5 3 -11 -1 -13 -5 -1 -21 -30 -38 -63 -16 -33 -40 -68 -52 -78 -13 -10 -22 -24 -20 -30 1 -7 -3 -11 -10 -10 -6 2 -20 -7 -30 -20 -10 -12 -45 -35 -78 -52 -33 -16 -62 -33 -63 -38 -2 -4 -8 -5 -13 -1 -5 3 -15 2 -21 -2 -34 -21 -200 -20 -250 0 -9 4 -22 9 -30 10 -7 1 -28 10 -45 19 -18 10 -36 18 -40 19 -5 0 -13 8 -20 17 -7 9 -13 13 -13 10 0 -4 -21 14 -48 40 -26 25 -46 49 -44 53 1 4 -4 10 -12 15 -8 4 -14 10 -14 13 0 10 -27 65 -35 71 -5 3 -8 10 -7 15 0 5 -5 31 -11 59 -13 54 -16 175 -6 192 4 6 4 18 1 27 -4 9 -1 16 6 16 7 0 10 7 6 15 -3 8 -1 15 5 15 6 0 9 7 5 15 -3 8 -1 15 5 15 6 0 7 5 4 10 -3 6 -1 10 6 10 7 0 10 3 7 6 -4 3 2 14 13 25 11 11 17 25 13 32 -4 7 -4 9 1 5 5 -5 15 2 24 15 9 12 13 22 11 23 -3 0 1 8 9 17 7 9 17 15 21 12 5 -3 16 5 24 17 9 12 16 18 16 13 0 -6 7 -2 14 8 8 10 17 18 20 18 3 0 25 8 48 18 67 28 81 33 107 37 13 1 25 4 26 6 4 4 133 0 155 -5z m-3376 -831 c277 -137 360 -469 178 -709 -150 -197 -421 -244 -628 -109 -68 45 -100 77 -143 147 -139 221 -64 517 164 651 84 49 150 65 257 61 88 -4 103 -7 172 -41z m3378 -1307 c239 -50 408 -290 371 -528 -49 -317 -384 -490 -680 -351 -273 127 -340 522 -126 745 111 117 275 167 435 134z m-3481 -719 c167 -31 309 -162 361 -333 37 -121 11 -285 -62 -392 -99 -145 -285 -225 -462 -197 -266 41 -441 292 -387 554 52 250 299 415 550 368z m1675 -1183 c77 -16 182 -78 251 -147 177 -179 176 -485 -3 -662 -68 -67 -129 -102 -217 -124 -184 -45 -381 26 -492 177 -70 95 -89 155 -89 279 0 124 19 184 88 278 50 68 119 121 225 174 85 42 132 47 237 25z"/>
 <path d="M3911 8834 c-75 -100 -91 -128 -80 -135 47 -31 221 -120 226 -116 3 3 0 27 -5 53 l-10 46 44 -6 c130 -17 222 -130 231 -281 4 -57 1 -77 -16 -109 l-21 -39 52 -84 c28 -46 56 -82 62 -80 6 2 30 31 53 65 76 112 93 281 43 414 -59 158 -218 277 -393 295 -59 6 -59 6 -72 71 -4 17 -10 32 -14 32 -3 0 -49 -57 -100 -126z"/>
 <path d="M3670 8668 c-44 -71 -79 -168 -86 -237 -13 -118 49 -265 156 -371 90 -89 197 -139 303 -140 37 0 37 0 37 -40 0 -22 4 -40 8 -40 8 0 204 233 210 249 2 7 -217 131 -232 131 -3 0 -6 -23 -6 -51 l0 -52 -41 7 c-55 9 -106 36 -152 83 -94 93 -112 220 -45 316 l20 27 -63 85 c-35 47 -66 85 -70 85 -4 0 -22 -24 -39 -52z"/>
 </g>
<g id="layer102" fill="#496158" stroke="none">
 <path d="M3975 9563 c-427 -55 -795 -321 -974 -704 -76 -162 -120 -373 -106 -513 47 -500 401 -935 871 -1071 49 -14 115 -29 147 -32 32 -3 65 -12 73 -20 12 -12 14 -12 14 1 0 16 -13 21 -95 31 -200 27 -437 145 -609 306 -264 247 -425 639 -386 940 51 393 301 743 660 924 206 103 419 149 588 125 535 -74 968 -512 1034 -1048 29 -237 -65 -556 -229 -778 -149 -199 -389 -371 -600 -430 -45 -12 -63 -22 -63 -34 0 -9 -2 -19 -5 -21 -2 -3 -6 -144 -7 -315 l-3 -309 27 -50 c14 -28 44 -69 65 -91 49 -51 895 -716 901 -709 7 6 66 -42 -428 346 -233 183 -442 351 -463 373 -21 22 -51 63 -65 91 l-27 50 0 302 c0 167 3 303 8 303 4 0 7 8 7 18 0 14 15 23 63 36 211 59 451 231 600 430 166 224 258 539 229 789 -46 410 -312 778 -693 956 -177 83 -384 124 -534 104z"/>
 <path d="M3930 9150 c-11 -8 -7 -9 15 -4 37 8 45 14 19 14 -10 0 -26 -5 -34 -10z"/>
 <path d="M4023 9153 c15 -2 37 -2 50 0 12 2 0 4 -28 4 -27 0 -38 -2 -22 -4z"/>
 <path d="M4246 9131 c14 -13 80 -33 68 -21 -6 6 -25 15 -44 20 -19 5 -29 6 -24 1z"/>
 <path d="M4330 9106 c0 -3 14 -12 30 -21 17 -9 30 -13 30 -11 0 3 -13 12 -30 21 -16 9 -30 13 -30 11z"/>
 <path d="M4400 9072 c0 -4 9 -13 20 -20 11 -7 20 -9 20 -4 0 4 -9 13 -20 20 -11 7 -20 9 -20 4z"/>
 <path d="M3643 9039 c-18 -12 -33 -25 -33 -30 0 -6 17 2 38 18 20 15 39 28 41 30 2 2 0 3 -5 3 -5 0 -24 -10 -41 -21z"/>
 <path d="M4450 9043 c1 -12 50 -46 50 -35 0 6 -11 17 -25 26 -14 9 -25 13 -25 9z"/>
 <path d="M3555 8970 c-16 -16 -26 -32 -24 -35 3 -2 21 11 39 30 19 19 29 35 24 35 -6 0 -23 -13 -39 -30z"/>
 <path d="M4535 8970 c16 -16 31 -28 33 -25 7 7 -39 55 -52 55 -5 0 3 -13 19 -30z"/>
 <path d="M4605 8900 c16 -16 31 -28 33 -25 7 7 -39 55 -52 55 -5 0 3 -13 19 -30z"/>
 <path d="M3485 8900 c-27 -30 -12 -34 15 -5 13 14 19 25 13 25 -5 0 -18 -9 -28 -20z"/>
 <path d="M4657 8835 c24 -32 38 -32 17 0 -9 14 -20 25 -26 25 -5 0 -1 -11 9 -25z"/>
 <path d="M4692 8780 c7 -11 16 -20 20 -20 5 0 3 9 -4 20 -7 11 -16 20 -20 20 -5 0 -3 -9 4 -20z"/>
 <path d="M3382 8745 c-6 -14 -8 -25 -4 -25 4 0 12 11 19 25 6 14 8 25 4 25 -4 0 -13 -11 -19 -25z"/>
 <path d="M4725 8720 c9 -16 18 -30 21 -30 2 0 -2 14 -11 30 -9 17 -18 30 -21 30 -2 0 2 -13 11 -30z"/>
 <path d="M3343 8655 c-6 -19 -7 -33 -3 -30 12 7 30 65 21 65 -4 0 -12 -16 -18 -35z"/>
 <path d="M4751 8650 c16 -46 31 -63 19 -20 -5 19 -14 38 -20 44 -7 7 -6 -2 1 -24z"/>
 <path d="M4793 8410 c0 -25 2 -35 4 -22 2 12 2 32 0 45 -2 12 -4 2 -4 -23z"/>
 <path d="M3303 8390 c0 -25 2 -35 4 -22 2 12 2 32 0 45 -2 12 -4 2 -4 -23z"/>
 <path d="M4786 8304 c-4 -14 -5 -28 -3 -31 3 -2 8 8 11 23 4 14 5 28 3 31 -3 2 -8 -8 -11 -23z"/>
 <path d="M4770 8222 c-6 -22 -17 -60 -26 -84 -9 -26 -10 -38 -3 -31 12 12 51 144 45 151 -3 2 -10 -14 -16 -36z"/>
 <path d="M3330 8170 c5 -19 14 -38 20 -44 7 -7 6 2 -1 24 -16 46 -31 63 -19 20z"/>
 <path d="M4410 8105 c-7 -9 -20 -13 -29 -10 -13 5 -14 4 -3 -7 10 -10 16 -8 34 10 12 12 20 22 16 22 -3 0 -11 -7 -18 -15z"/>
 <path d="M3365 8080 c9 -16 18 -30 21 -30 2 0 -2 14 -11 30 -9 17 -18 30 -21 30 -2 0 2 -13 11 -30z"/>
 <path d="M3392 8020 c7 -11 16 -20 20 -20 5 0 3 9 -4 20 -7 11 -16 20 -20 20 -5 0 -3 -9 4 -20z"/>
 <path d="M4677 7999 c-10 -18 -16 -34 -14 -36 3 -2 14 12 25 32 12 19 18 35 14 35 -4 0 -15 -14 -25 -31z"/>
 <path d="M3426 7965 c9 -14 20 -25 26 -25 11 0 -23 49 -35 50 -4 0 0 -11 9 -25z"/>
 <path d="M4581 7879 c-35 -38 -59 -69 -53 -69 12 0 122 119 122 132 0 12 0 12 -69 -63z"/>
 <path d="M3460 7924 c0 -13 48 -59 55 -52 3 2 -9 17 -25 33 -17 16 -30 24 -30 19z"/>
 <path d="M3530 7854 c0 -13 48 -59 55 -52 3 2 -9 17 -25 33 -17 16 -30 24 -30 19z"/>
 <path d="M3600 7792 c0 -6 11 -17 25 -26 14 -9 25 -13 25 -9 -1 12 -50 46 -50 35z"/>
 <path d="M3660 7752 c0 -4 9 -13 20 -20 11 -7 20 -9 20 -4 0 4 -9 13 -20 20 -11 7 -20 9 -20 4z"/>
 <path d="M4388 7731 c-69 -39 -72 -47 -5 -15 31 16 57 32 57 36 0 4 -1 8 -2 7 -2 -1 -24 -13 -50 -28z"/>
 <path d="M3710 7726 c0 -3 14 -12 30 -21 17 -9 30 -13 30 -11 0 3 -13 12 -30 21 -16 9 -30 13 -30 11z"/>
 <path d="M3786 7690 c6 -6 25 -15 44 -20 43 -12 26 3 -20 19 -22 7 -31 8 -24 1z"/>
 <path d="M4283 7687 c-44 -17 -53 -28 -13 -17 19 5 38 14 44 20 12 12 10 12 -31 -3z"/>
 <path d="M4028 7643 c12 -2 32 -2 45 0 12 2 2 4 -23 4 -25 0 -35 -2 -22 -4z"/>
 <path d="M4133 7203 c9 -2 25 -2 35 0 9 3 1 5 -18 5 -19 0 -27 -2 -17 -5z"/>
 <path d="M3992 7033 c-1 -94 -5 -173 -9 -175 -5 -1 -6 -52 -3 -113 5 -103 6 -97 13 105 5 118 7 247 5 285 -2 39 -5 -7 -6 -102z"/>
 <path d="M3970 6295 l0 -315 -30 -66 c-16 -36 -48 -88 -71 -116 -40 -47 -259 -215 -791 -607 -115 -84 -208 -157 -208 -162 0 -4 105 69 233 163 760 561 788 585 845 705 l27 58 5 328 c3 180 2 327 -2 327 -5 0 -8 -142 -8 -315z"/>
 <path d="M4315 6161 c34 -5 106 -57 435 -311 217 -168 398 -304 402 -303 13 5 9 -88 -8 -167 -29 -137 -3 -286 79 -445 31 -60 63 -102 127 -165 247 -248 590 -285 880 -95 169 110 285 281 325 484 76 374 -255 786 -663 826 -157 16 -365 -58 -495 -174 -21 -19 -55 -38 -75 -42 l-37 -7 37 -1 c29 -1 46 7 80 37 139 120 339 192 487 177 335 -35 631 -331 666 -666 12 -119 -38 -292 -122 -414 -175 -257 -491 -386 -753 -306 -250 76 -433 257 -508 502 -31 100 -37 191 -18 279 9 41 16 98 16 126 0 43 -4 54 -22 67 -13 8 -195 148 -406 311 -370 286 -384 296 -425 294 l-42 -1 40 -6z"/>
 <path d="M4276 6126 c-7 -29 -6 -210 1 -203 4 5 11 227 7 227 -1 0 -5 -11 -8 -24z"/>
 <path d="M4270 5888 c0 -7 -1 -260 -2 -563 l-3 -550 29 -55 c16 -30 40 -69 53 -87 21 -27 626 -616 905 -881 107 -101 126 -105 221 -40 121 82 305 137 411 124 313 -41 571 -265 652 -566 82 -303 -120 -661 -446 -793 -99 -40 -147 -50 -240 -51 -107 0 -188 21 -310 81 -79 38 -110 61 -181 132 -71 71 -94 102 -132 181 -26 52 -55 124 -64 160 -22 85 -21 217 2 295 23 77 31 165 15 165 -6 0 -8 5 -4 12 4 6 3 8 -3 5 -5 -3 -195 169 -422 384 -373 351 -416 389 -444 388 -31 -2 -31 -2 -5 -6 20 -3 135 -106 401 -356 205 -194 397 -373 426 -399 50 -45 53 -50 48 -85 -3 -21 -13 -65 -23 -98 -23 -80 -24 -229 -1 -315 9 -36 38 -108 64 -160 38 -79 61 -110 132 -181 71 -71 102 -94 181 -132 52 -26 124 -55 160 -64 76 -20 233 -22 300 -4 336 90 572 376 573 696 2 358 -304 682 -681 721 -117 13 -296 -41 -420 -125 -45 -30 -71 -41 -92 -39 -23 2 -97 69 -342 304 -598 576 -683 662 -720 734 l-33 65 3 558 c2 306 1 557 -2 557 -3 0 -6 -6 -6 -12z"/>
 <path d="M5828 5733 c12 -2 32 -2 45 0 12 2 2 4 -23 4 -25 0 -35 -2 -22 -4z"/>
 <path d="M5658 5703 c-32 -14 -58 -29 -58 -33 0 -4 21 3 47 16 25 13 52 24 59 24 7 0 16 5 19 10 10 15 -5 12 -67 -17z"/>
 <path d="M6000 5712 c0 -4 14 -13 30 -19 17 -6 30 -10 30 -7 0 2 -13 10 -30 19 -16 9 -30 12 -30 7z"/>
 <path d="M6084 5665 c11 -8 25 -15 30 -15 6 0 2 7 -8 15 -11 8 -25 15 -30 15 -6 0 -2 -7 8 -15z"/>
 <path d="M6130 5643 c0 -11 88 -98 94 -92 2 2 -18 26 -45 53 -27 27 -49 44 -49 39z"/>
 <path d="M5512 5602 c-57 -64 -72 -85 -71 -96 0 -6 8 0 17 14 9 14 37 46 61 73 24 26 40 47 35 47 -5 -1 -24 -18 -42 -38z"/>
 <path d="M6232 5532 c23 -53 55 -111 61 -112 4 0 -6 27 -23 60 -17 33 -33 60 -36 60 -3 0 -4 -3 -2 -8z"/>
 <path d="M3458 5138 c-235 -178 -423 -324 -418 -326 4 -2 198 141 430 318 333 252 428 320 452 320 l29 0 -3 -289 c-2 -159 0 -283 5 -276 4 8 6 139 5 292 l-3 278 -36 3 c-33 3 -67 -21 -461 -320z"/>
 <path d="M5383 5280 c0 -30 2 -43 4 -27 2 15 2 39 0 55 -2 15 -4 2 -4 -28z"/>
 <path d="M6313 5270 c0 -25 2 -35 4 -22 2 12 2 32 0 45 -2 12 -4 2 -4 -23z"/>
 <path d="M5386 5180 c7 -39 21 -80 28 -80 4 0 -19 84 -29 105 -3 6 -2 -6 1 -25z"/>
 <path d="M2283 5180 c-266 -48 -500 -245 -588 -497 -67 -192 -52 -346 52 -546 54 -104 191 -239 299 -294 290 -150 594 -103 824 127 189 189 257 435 187 680 -14 52 -28 109 -30 125 -4 26 -4 26 -6 -7 0 -21 11 -77 25 -125 107 -355 -128 -747 -511 -854 -157 -44 -311 -23 -479 64 -61 31 -103 63 -172 132 -77 76 -98 105 -137 185 -26 52 -55 124 -64 160 -115 447 382 943 827 826 75 -19 200 -76 247 -112 20 -15 43 -23 65 -23 33 2 33 2 4 6 -16 3 -43 15 -60 28 -45 34 -172 92 -241 110 -79 20 -177 26 -242 15z"/>
 <path d="M6257 5063 c-15 -31 -25 -58 -23 -60 3 -3 19 22 35 56 17 34 28 61 24 60 -5 0 -20 -25 -36 -56z"/>
 <path d="M5427 5055 c9 -19 20 -35 24 -35 9 0 -24 69 -33 70 -4 0 0 -16 9 -35z"/>
 <path d="M6170 4945 c-24 -25 -40 -45 -36 -45 11 0 90 79 84 85 -2 3 -24 -16 -48 -40z"/>
 <path d="M5480 4974 c0 -13 68 -79 75 -73 2 3 -13 23 -35 44 -22 22 -40 35 -40 29z"/>
 <path d="M2333 4943 c20 -2 54 -2 75 0 20 2 3 4 -38 4 -41 0 -58 -2 -37 -4z"/>
 <path d="M2205 4921 c-145 -52 -279 -203 -299 -336 -6 -34 -4 -32 13 17 52 157 156 262 311 315 36 12 56 22 45 22 -11 0 -43 -8 -70 -18z"/>
 <path d="M2451 4936 c2 -2 20 -6 39 -10 25 -4 31 -3 20 4 -14 9 -69 15 -59 6z"/>
 <path d="M2550 4907 c0 -3 20 -15 45 -27 66 -32 155 -124 192 -200 40 -84 43 -95 52 -198 8 -82 8 -83 10 -26 3 169 -78 329 -214 416 -39 26 -85 44 -85 35z"/>
 <path d="M6053 4862 c-28 -15 -52 -30 -52 -35 -1 -4 26 6 59 23 33 17 60 32 60 35 0 9 -14 4 -67 -23z"/>
 <path d="M5600 4872 c0 -5 16 -16 35 -25 19 -9 35 -15 35 -13 0 2 -16 13 -35 25 -19 11 -35 17 -35 13z"/>
 <path d="M5680 4830 c0 -4 11 -10 25 -12 13 -3 22 -2 20 2 -7 11 -45 20 -45 10z"/>
 <path d="M3939 4633 c-1 -98 -4 -270 -8 -383 -6 -193 -8 -208 -32 -261 -15 -31 -57 -88 -95 -129 -69 -73 -380 -357 -756 -689 -109 -96 -195 -177 -193 -179 6 -6 54 35 447 386 438 390 568 519 605 597 27 58 28 68 34 265 4 113 8 279 9 370 1 162 2 164 16 112 19 -74 79 -216 121 -287 61 -104 143 -205 167 -204 l21 0 -21 9 c-30 12 -131 150 -181 246 -41 79 -113 275 -113 308 0 9 -4 16 -10 16 -6 0 -10 -67 -11 -177z"/>
 <path d="M5828 4803 c12 -2 32 -2 45 0 12 2 2 4 -23 4 -25 0 -35 -2 -22 -4z"/>
 <path d="M1893 4470 c0 -41 2 -58 4 -37 2 20 2 54 0 75 -2 20 -4 3 -4 -38z"/>
 <path d="M1905 4355 c24 -151 201 -327 350 -349 34 -6 32 -4 -17 13 -157 52 -261 154 -316 311 -18 51 -22 56 -17 25z"/>
 <path d="M2826 4358 c-27 -139 -159 -281 -314 -335 -51 -19 -58 -23 -27 -18 113 18 256 131 313 248 28 57 51 137 39 137 -3 0 -8 -15 -11 -32z"/>
 <path d="M4243 4140 c0 -47 2 -66 4 -42 2 23 2 61 0 85 -2 23 -4 4 -4 -43z"/>
 <path d="M4239 4019 c-8 -67 -39 -2113 -32 -2120 5 -3 26 -12 48 -19 162 -50 335 -195 412 -346 116 -222 116 -415 1 -637 -136 -262 -458 -435 -713 -382 -303 63 -537 297 -600 600 -41 199 49 434 230 603 75 70 188 138 272 162 l41 13 6 131 c3 72 10 423 16 780 9 529 8 651 -2 658 -7 4 -29 8 -48 7 -32 0 -75 -35 -434 -349 -219 -192 -404 -347 -409 -343 -6 3 -7 1 -3 -5 4 -7 2 -12 -4 -12 -17 0 -7 -84 18 -152 35 -91 46 -190 32 -276 -27 -167 -91 -293 -210 -413 -71 -71 -101 -93 -180 -132 -122 -60 -203 -81 -310 -81 -93 1 -141 11 -240 51 -183 74 -337 225 -411 403 -38 90 -63 220 -55 284 46 354 318 626 672 672 97 12 278 -38 386 -107 30 -20 67 -33 96 -36 36 -4 56 -14 87 -42 l40 -36 -38 41 c-31 34 -47 43 -83 47 -25 2 -64 18 -92 36 -110 70 -287 119 -394 107 -360 -37 -647 -324 -684 -684 -8 -72 16 -200 55 -292 74 -178 228 -329 411 -403 101 -41 147 -50 250 -51 118 0 194 19 320 81 79 39 109 61 180 132 198 199 267 472 179 709 -12 31 -24 73 -26 92 -4 31 0 38 29 59 18 14 203 174 412 355 378 331 417 359 448 328 8 -8 -6 -1137 -18 -1418 l-6 -131 -41 -13 c-84 -24 -197 -92 -272 -162 -185 -173 -274 -413 -230 -623 63 -303 297 -537 600 -600 390 -81 820 289 819 705 0 116 -27 219 -87 334 -78 152 -254 299 -416 347 -23 7 -45 18 -47 23 -2 6 5 481 15 1056 11 575 17 1047 15 1049 -2 2 -4 2 -5 0z"/>
 <path d="M2333 3993 c20 -2 54 -2 75 0 20 2 3 4 -38 4 -41 0 -58 -2 -37 -4z"/>
 <path d="M5594 3539 c-27 -17 -62 -43 -78 -58 -32 -29 -106 -138 -106 -155 0 -6 13 12 30 40 16 28 50 72 76 98 26 26 70 60 98 76 28 17 46 30 40 30 -5 0 -32 -14 -60 -31z"/>
 <path d="M5373 3125 c0 -27 2 -38 4 -22 2 15 2 37 0 50 -2 12 -4 0 -4 -28z"/>
 <path d="M6179 2793 l-34 -38 38 34 c34 33 42 41 34 41 -2 0 -19 -17 -38 -37z"/>
 <path d="M2030 2075 c19 -19 36 -35 39 -35 3 0 -10 16 -29 35 -19 19 -36 35 -39 35 -3 0 10 -16 29 -35z"/>
 <path d="M2699 2073 l-34 -38 38 34 c20 19 37 36 37 38 0 8 -8 0 -41 -34z"/>
 <path d="M3920 1689 c-75 -35 -178 -109 -227 -163 -45 -49 -103 -156 -103 -186 0 -8 11 11 24 42 50 122 143 213 292 283 53 25 87 35 121 35 176 -1 357 -113 441 -272 18 -35 30 -52 27 -38 -21 78 -93 165 -194 234 -92 62 -135 77 -246 82 -76 3 -97 0 -135 -17z"/>
 <path d="M4507 1325 c3 -22 7 -42 9 -44 8 -9 2 45 -6 64 -7 14 -8 8 -3 -20z"/>
 <path d="M4523 1210 c0 -30 2 -43 4 -27 2 15 2 39 0 55 -2 15 -4 2 -4 -28z"/>
 <path d="M3573 1210 c0 -25 2 -35 4 -22 2 12 2 32 0 45 -2 12 -4 2 -4 -23z"/>
 <path d="M4511 1125 c-1 -11 -4 -31 -6 -45 l-6 -25 11 25 c6 13 9 33 7 45 -4 19 -4 19 -6 0z"/>
 <path d="M3590 1080 c0 -39 64 -146 124 -206 60 -60 167 -124 206 -124 8 0 -11 11 -42 24 -118 49 -215 145 -264 263 -13 32 -24 51 -24 43z"/>
 <path d="M4467 990 c-33 -66 -115 -152 -184 -192 -27 -15 -43 -28 -37 -28 22 0 131 78 167 121 36 41 94 145 86 154 -2 2 -17 -23 -32 -55z"/>
 <path d="M4170 754 l-45 -14 40 6 c22 3 47 10 55 15 21 12 3 10 -50 -7z"/>
 <path d="M4028 733 c12 -2 32 -2 45 0 12 2 2 4 -23 4 -25 0 -35 -2 -22 -4z"/>
 </g>
<g id="layer103" fill="#7d8986" stroke="none">
 <path d="M3975 9563 c-427 -55 -795 -321 -974 -704 -76 -162 -120 -373 -106 -513 47 -500 401 -935 871 -1071 49 -14 115 -29 147 -32 32 -3 65 -12 73 -20 12 -12 14 -12 14 1 0 16 -13 21 -95 31 -200 27 -437 145 -609 306 -264 247 -425 639 -386 940 51 393 301 743 660 924 206 103 419 149 588 125 535 -74 968 -512 1034 -1048 29 -237 -65 -556 -229 -778 -149 -199 -389 -371 -600 -430 -50 -14 -62 -21 -66 -40 -2 -13 0 -24 4 -24 5 0 9 8 9 18 0 14 15 23 63 36 211 59 451 231 600 430 166 224 258 539 229 789 -46 410 -312 778 -693 956 -177 83 -384 124 -534 104z"/>
 <path d="M4023 9153 c15 -2 37 -2 50 0 12 2 0 4 -28 4 -27 0 -38 -2 -22 -4z"/>
 <path d="M4245 9132 c6 -5 26 -15 45 -21 19 -6 30 -8 25 -3 -6 5 -26 15 -45 21 -19 6 -30 8 -25 3z"/>
 <path d="M4330 9106 c0 -3 14 -12 30 -21 17 -9 30 -13 30 -11 0 3 -13 12 -30 21 -16 9 -30 13 -30 11z"/>
 <path d="M3643 9038 c-18 -11 -33 -24 -33 -29 0 -6 17 2 38 18 20 15 39 28 41 30 19 13 -21 -3 -46 -19z"/>
 <path d="M4471 9021 c13 -11 26 -17 28 -15 5 5 -30 33 -43 34 -4 0 2 -9 15 -19z"/>
 <path d="M3558 8971 c-18 -16 -30 -32 -27 -35 3 -3 21 10 39 29 41 42 33 46 -12 6z"/>
 <path d="M4534 8971 c16 -17 32 -29 34 -26 7 7 -18 34 -42 47 -16 8 -14 3 8 -21z"/>
 <path d="M4580 8927 c0 -2 14 -16 32 -33 30 -28 30 -17 0 19 -13 15 -32 23 -32 14z"/>
 <path d="M3493 8908 c-24 -32 -24 -41 0 -19 15 14 27 26 27 28 0 8 -19 2 -27 -9z"/>
 <path d="M4657 8836 c10 -13 19 -23 21 -21 5 5 -22 45 -31 45 -4 0 0 -11 10 -24z"/>
 <path d="M3382 8745 c-6 -14 -8 -25 -4 -25 4 0 12 11 19 25 6 14 8 25 4 25 -4 0 -13 -11 -19 -25z"/>
 <path d="M4725 8720 c9 -16 18 -30 21 -30 2 0 -2 14 -11 30 -9 17 -18 30 -21 30 -2 0 2 -13 11 -30z"/>
 <path d="M3349 8664 c-5 -15 -12 -31 -16 -37 -3 -6 -1 -7 4 -4 11 7 36 67 27 67 -2 0 -9 -12 -15 -26z"/>
 <path d="M4751 8650 c6 -19 16 -39 21 -45 5 -5 3 6 -3 25 -6 19 -16 39 -21 45 -5 5 -3 -6 3 -25z"/>
 <path d="M4793 8410 c0 -25 2 -35 4 -22 2 12 2 32 0 45 -2 12 -4 2 -4 -23z"/>
 <path d="M3303 8390 c0 -25 2 -35 4 -22 2 12 2 32 0 45 -2 12 -4 2 -4 -23z"/>
 <path d="M4786 8304 c-4 -14 -5 -28 -3 -31 3 -2 8 8 11 23 4 14 5 28 3 31 -3 2 -8 -8 -11 -23z"/>
 <path d="M4770 8222 c-6 -22 -17 -60 -26 -84 -8 -23 -11 -38 -5 -33 11 12 53 146 47 153 -3 2 -10 -14 -16 -36z"/>
 <path d="M3331 8170 c6 -19 16 -39 21 -45 5 -5 3 6 -3 25 -6 19 -16 39 -21 45 -5 5 -3 -6 3 -25z"/>
 <path d="M4410 8105 c-7 -9 -20 -13 -29 -10 -13 5 -14 4 -3 -7 10 -10 16 -8 34 10 12 12 20 22 16 22 -3 0 -11 -7 -18 -15z"/>
 <path d="M3365 8080 c9 -16 18 -30 21 -30 2 0 -2 14 -11 30 -9 17 -18 30 -21 30 -2 0 2 -13 11 -30z"/>
 <path d="M4677 7998 c-10 -17 -16 -33 -13 -35 2 -3 12 9 21 27 21 41 15 48 -8 8z"/>
 <path d="M3420 7984 c1 -13 29 -48 34 -43 2 2 -4 15 -15 28 -10 13 -19 19 -19 15z"/>
 <path d="M4580 7877 c-36 -39 -53 -63 -39 -53 27 17 114 115 108 120 -2 2 -33 -29 -69 -67z"/>
 <path d="M3468 7914 c13 -24 40 -49 47 -42 3 2 -9 18 -26 34 -24 22 -29 24 -21 8z"/>
 <path d="M3530 7852 c0 -10 26 -34 50 -47 8 -4 2 6 -14 23 -32 34 -36 37 -36 24z"/>
 <path d="M3600 7793 c0 -9 40 -36 45 -31 2 2 -8 11 -21 21 -13 10 -24 14 -24 10z"/>
 <path d="M4388 7731 c-69 -39 -72 -47 -5 -15 31 16 57 32 57 36 0 4 -1 8 -2 7 -2 -1 -24 -13 -50 -28z"/>
 <path d="M3710 7726 c0 -3 14 -12 30 -21 17 -9 30 -13 30 -11 0 3 -13 12 -30 21 -16 9 -30 13 -30 11z"/>
 <path d="M3785 7692 c6 -5 26 -15 45 -21 19 -6 30 -8 25 -3 -6 5 -26 15 -45 21 -19 6 -30 8 -25 3z"/>
 <path d="M4283 7687 c-17 -7 -35 -15 -39 -20 -10 -10 58 13 71 24 11 11 8 11 -32 -4z"/>
 <path d="M4028 7643 c12 -2 32 -2 45 0 12 2 2 4 -23 4 -25 0 -35 -2 -22 -4z"/>
 <path d="M4286 6938 c-4 -160 -3 -296 2 -313 16 -54 49 -110 89 -151 49 -51 895 -716 901 -709 7 6 66 -42 -428 346 -233 183 -442 351 -463 373 -21 22 -51 63 -65 91 l-27 50 3 298 c2 163 2 297 -1 297 -2 0 -7 -127 -11 -282z"/>
 <path d="M3992 7033 c-1 -94 -5 -173 -9 -175 -5 -1 -6 -52 -3 -113 5 -103 6 -97 13 105 5 118 7 247 5 285 -2 39 -5 -7 -6 -102z"/>
 <path d="M3970 6295 l0 -315 -30 -66 c-16 -36 -48 -88 -71 -116 -40 -47 -259 -215 -791 -607 -115 -84 -208 -157 -208 -162 0 -4 105 69 233 163 760 561 788 585 845 705 l27 58 5 328 c3 180 2 327 -2 327 -5 0 -8 -142 -8 -315z"/>
 <path d="M4313 6163 c39 -4 56 -17 685 -505 83 -65 152 -114 152 -109 0 5 -178 147 -395 315 -383 296 -397 306 -438 304 l-42 -1 38 -4z"/>
 <path d="M4276 6126 c-7 -29 -6 -210 1 -203 4 5 11 227 7 227 -1 0 -5 -11 -8 -24z"/>
 <path d="M5730 5975 c-133 -30 -258 -92 -337 -167 -18 -17 -49 -34 -70 -38 l-38 -8 37 -1 c29 -1 46 7 80 37 139 120 339 192 487 177 335 -35 631 -331 666 -666 12 -119 -38 -292 -122 -414 -175 -257 -491 -386 -753 -306 -250 76 -433 257 -508 502 -31 100 -37 191 -18 279 9 41 15 100 14 130 -1 52 -2 53 -5 10 -2 -25 -10 -83 -19 -130 -41 -213 36 -441 206 -610 247 -248 590 -285 880 -95 169 110 285 281 325 484 55 271 -108 584 -385 739 -134 75 -312 106 -440 77z"/>
 <path d="M4265 5366 c-4 -293 -4 -549 0 -567 9 -42 49 -123 82 -166 21 -27 626 -616 905 -881 107 -101 126 -105 221 -40 121 82 305 137 411 124 313 -41 571 -265 652 -566 82 -303 -120 -661 -446 -793 -99 -40 -147 -50 -240 -51 -107 0 -188 21 -310 81 -79 38 -110 61 -181 132 -71 71 -94 102 -132 181 -26 52 -55 124 -64 160 -22 85 -21 217 2 295 10 33 20 81 22 106 5 45 3 48 -48 95 -29 27 -221 208 -427 402 -338 318 -377 352 -405 351 -30 -2 -31 -2 -5 -6 20 -3 135 -106 401 -356 205 -194 397 -373 426 -399 50 -45 53 -50 48 -85 -3 -21 -13 -65 -23 -98 -23 -80 -24 -229 -1 -315 9 -36 38 -108 64 -160 38 -79 61 -110 132 -181 71 -71 102 -94 181 -132 52 -26 124 -55 160 -64 76 -20 233 -22 300 -4 336 90 572 376 573 696 2 358 -304 682 -681 721 -117 13 -296 -41 -420 -125 -45 -30 -71 -41 -92 -39 -23 2 -97 69 -342 304 -598 576 -683 662 -720 734 l-33 65 3 558 c2 306 2 557 -1 557 -2 0 -8 -240 -12 -534z"/>
 <path d="M5828 5733 c12 -2 32 -2 45 0 12 2 2 4 -23 4 -25 0 -35 -2 -22 -4z"/>
 <path d="M5665 5705 c-33 -14 -61 -25 -62 -25 -2 0 -3 -4 -3 -9 0 -4 21 2 47 15 25 13 52 24 59 24 7 0 16 5 19 10 8 13 9 13 -60 -15z"/>
 <path d="M6010 5703 c8 -3 24 -10 35 -15 20 -9 20 -9 1 6 -11 9 -27 16 -35 15 -14 0 -14 -1 -1 -6z"/>
 <path d="M6084 5665 c11 -8 25 -15 30 -15 6 0 2 7 -8 15 -11 8 -25 15 -30 15 -6 0 -2 -7 8 -15z"/>
 <path d="M5514 5601 c-48 -48 -74 -82 -73 -96 0 -5 8 1 17 15 9 14 37 46 61 73 53 57 49 63 -5 8z"/>
 <path d="M6170 5595 c24 -24 46 -43 48 -40 6 6 -73 85 -84 85 -4 0 12 -20 36 -45z"/>
 <path d="M6230 5539 c0 -4 14 -33 30 -64 17 -31 30 -52 30 -46 0 18 -59 126 -60 110z"/>
 <path d="M3458 5138 c-235 -178 -423 -324 -418 -326 4 -2 198 141 430 318 333 252 428 320 452 320 l29 0 -3 -289 c-2 -159 0 -283 5 -276 4 8 6 139 5 292 l-3 278 -36 3 c-33 3 -67 -21 -461 -320z"/>
 <path d="M5383 5280 c0 -30 2 -43 4 -27 2 15 2 39 0 55 -2 15 -4 2 -4 -28z"/>
 <path d="M6313 5270 c0 -25 2 -35 4 -22 2 12 2 32 0 45 -2 12 -4 2 -4 -23z"/>
 <path d="M2283 5180 c-266 -48 -500 -245 -588 -497 -67 -192 -52 -346 52 -546 54 -104 191 -239 299 -294 290 -150 594 -103 824 127 189 189 257 435 187 680 -14 52 -28 109 -30 125 -4 26 -4 26 -6 -7 0 -21 11 -77 25 -125 107 -355 -128 -747 -511 -854 -157 -44 -311 -23 -479 64 -61 31 -103 63 -172 132 -77 76 -98 105 -137 185 -26 52 -55 124 -64 160 -115 447 382 943 827 826 75 -19 200 -76 247 -112 20 -15 43 -23 65 -23 33 2 33 2 4 6 -16 3 -43 15 -60 28 -45 34 -172 92 -241 110 -79 20 -177 26 -242 15z"/>
 <path d="M5395 5150 c3 -19 10 -39 15 -44 7 -7 7 -1 1 19 -17 54 -21 61 -16 25z"/>
 <path d="M6257 5061 c-15 -30 -26 -56 -24 -58 6 -5 59 96 55 105 -2 4 -15 -17 -31 -47z"/>
 <path d="M5427 5055 c9 -19 20 -35 24 -35 9 0 -24 69 -33 70 -4 0 0 -16 9 -35z"/>
 <path d="M6170 4945 c-24 -25 -40 -45 -36 -45 11 0 90 79 84 85 -2 3 -24 -16 -48 -40z"/>
 <path d="M5489 4962 c10 -19 37 -44 61 -57 8 -4 -3 11 -25 34 -43 45 -51 50 -36 23z"/>
 <path d="M2333 4943 c20 -2 54 -2 75 0 20 2 3 4 -38 4 -41 0 -58 -2 -37 -4z"/>
 <path d="M2205 4921 c-145 -52 -279 -203 -299 -336 -6 -34 -4 -32 13 17 52 157 156 262 311 315 36 12 56 22 45 22 -11 0 -43 -8 -70 -18z"/>
 <path d="M2451 4936 c2 -2 20 -6 39 -10 25 -4 31 -3 20 4 -14 9 -69 15 -59 6z"/>
 <path d="M2550 4907 c0 -3 20 -15 45 -27 66 -32 155 -124 192 -200 40 -84 43 -95 52 -198 8 -82 8 -83 10 -26 3 169 -78 329 -214 416 -39 26 -85 44 -85 35z"/>
 <path d="M6051 4859 c-29 -16 -48 -29 -42 -29 12 0 72 30 101 49 30 21 -7 8 -59 -20z"/>
 <path d="M5600 4872 c0 -5 16 -16 35 -25 19 -9 35 -15 35 -13 0 2 -16 13 -35 25 -19 11 -35 17 -35 13z"/>
 <path d="M3941 4635 c-2 -99 -6 -272 -10 -385 -6 -193 -8 -208 -32 -261 -15 -31 -57 -88 -95 -129 -69 -73 -380 -357 -756 -689 -109 -96 -195 -177 -193 -179 6 -6 54 35 447 386 439 391 568 519 605 597 27 59 28 65 35 310 5 138 7 313 5 390 l-3 140 -3 -180z"/>
 <path d="M5828 4803 c12 -2 32 -2 45 0 12 2 2 4 -23 4 -25 0 -35 -2 -22 -4z"/>
 <path d="M1893 4470 c0 -41 2 -58 4 -37 2 20 2 54 0 75 -2 20 -4 3 -4 -38z"/>
 <path d="M1905 4355 c24 -151 201 -327 350 -349 34 -6 32 -4 -17 13 -157 52 -261 154 -316 311 -18 51 -22 56 -17 25z"/>
 <path d="M2826 4358 c-27 -139 -159 -281 -314 -335 -51 -19 -58 -23 -27 -18 113 18 256 131 313 248 28 57 51 137 39 137 -3 0 -8 -15 -11 -32z"/>
 <path d="M4243 4140 c0 -47 2 -66 4 -42 2 23 2 61 0 85 -2 23 -4 4 -4 -43z"/>
 <path d="M4236 3868 c-12 -309 -36 -1962 -29 -1969 5 -3 26 -12 48 -19 162 -50 335 -195 412 -346 116 -222 116 -415 1 -637 -136 -262 -458 -435 -713 -382 -303 63 -537 297 -600 600 -41 199 49 434 230 603 75 70 188 138 272 162 l41 13 6 131 c3 72 10 423 16 780 9 529 8 651 -2 658 -7 4 -29 7 -49 6 -32 -3 -83 -43 -420 -338 -211 -184 -397 -345 -413 -357 -25 -20 -28 -27 -23 -65 2 -24 14 -68 25 -100 35 -91 46 -190 32 -276 -27 -167 -91 -293 -210 -413 -71 -71 -101 -93 -180 -132 -122 -60 -203 -81 -310 -81 -93 1 -141 11 -240 51 -183 74 -337 225 -411 403 -38 90 -63 220 -55 284 46 354 318 626 672 672 97 12 278 -38 386 -107 32 -21 64 -33 96 -35 l47 -3 -44 9 c-24 5 -65 23 -91 40 -108 69 -285 118 -392 106 -360 -37 -647 -324 -684 -684 -8 -72 16 -200 55 -292 74 -178 228 -329 411 -403 101 -41 147 -50 250 -51 118 0 194 19 320 81 79 39 109 61 180 132 198 199 267 472 179 709 -12 31 -24 73 -26 92 -4 31 0 38 29 59 18 14 203 174 412 355 378 331 417 359 448 328 8 -8 -6 -1137 -18 -1418 l-6 -131 -41 -13 c-84 -24 -197 -92 -272 -162 -185 -173 -274 -413 -230 -623 63 -303 297 -537 600 -600 390 -81 820 289 819 705 0 116 -27 219 -87 334 -78 152 -254 299 -416 347 -23 7 -45 18 -47 23 -2 6 5 481 15 1056 11 575 18 1046 16 1048 -1 2 -6 -66 -9 -150z"/>
 <path d="M2333 3993 c20 -2 54 -2 75 0 20 2 3 4 -38 4 -41 0 -58 -2 -37 -4z"/>
 <path d="M5594 3539 c-27 -17 -62 -43 -78 -58 -32 -29 -106 -138 -106 -155 0 -6 13 12 30 40 16 28 50 72 76 98 26 26 70 60 98 76 28 17 46 30 40 30 -5 0 -32 -14 -60 -31z"/>
 <path d="M5373 3125 c0 -27 2 -38 4 -22 2 15 2 37 0 50 -2 12 -4 0 -4 -28z"/>
 <path d="M3920 1689 c-75 -35 -178 -109 -227 -163 -45 -49 -103 -156 -103 -186 0 -8 11 11 24 42 50 122 143 213 292 283 53 25 87 35 121 35 176 -1 357 -113 441 -272 18 -35 30 -52 27 -38 -21 78 -93 165 -194 234 -92 62 -135 77 -246 82 -76 3 -97 0 -135 -17z"/>
 <path d="M4507 1325 c3 -22 7 -42 9 -44 8 -9 2 45 -6 64 -7 14 -8 8 -3 -20z"/>
 <path d="M4523 1210 c0 -30 2 -43 4 -27 2 15 2 39 0 55 -2 15 -4 2 -4 -28z"/>
 <path d="M3573 1210 c0 -25 2 -35 4 -22 2 12 2 32 0 45 -2 12 -4 2 -4 -23z"/>
 <path d="M4511 1125 c-1 -11 -4 -31 -6 -45 l-6 -25 11 25 c6 13 9 33 7 45 -4 19 -4 19 -6 0z"/>
 <path d="M3590 1080 c0 -39 64 -146 124 -206 60 -60 167 -124 206 -124 8 0 -11 11 -42 24 -118 49 -215 145 -264 263 -13 32 -24 51 -24 43z"/>
 <path d="M4467 990 c-33 -66 -115 -152 -184 -192 -27 -15 -43 -28 -37 -28 22 0 131 78 167 121 36 41 94 145 86 154 -2 2 -17 -23 -32 -55z"/>
 <path d="M4170 754 l-45 -14 40 6 c22 3 47 10 55 15 21 12 3 10 -50 -7z"/>
 <path d="M4028 733 c12 -2 32 -2 45 0 12 2 2 4 -23 4 -25 0 -35 -2 -22 -4z"/>
 </g>

</svg>