<!DOCTYPE svg PUBLIC "-//W3C//DTD SVG 20010904//EN" "http://www.w3.org/TR/2001/REC-SVG-20010904/DTD/svg10.dtd">
<svg version="1.0" xmlns="http://www.w3.org/2000/svg" width="814px" height="1024px" viewBox="0 0 8140 10240" preserveAspectRatio="xMidYMid meet">
<g id="layer101" fill="#1a4748" stroke="none">
 <path d="M0 5120 l0 -5120 4070 0 4070 0 0 5120 0 5120 -4070 0 -4070 0 0 -5120z"/>
 </g>
<g id="layer102" fill="#455953" stroke="none">
 <path d="M0 5120 l0 -5120 4070 0 4070 0 0 5120 0 5120 -4070 0 -4070 0 0 -5120z m4278 4456 c294 -63 547 -227 728 -471 294 -397 310 -919 42 -1352 -71 -116 -235 -283 -350 -357 -100 -65 -166 -97 -281 -136 l-82 -28 -8 -238 c-9 -285 -6 -327 27 -398 26 -55 107 -130 307 -286 38 -30 101 -80 140 -110 38 -30 101 -80 140 -110 38 -30 102 -80 140 -110 39 -30 98 -78 133 -106 101 -83 98 -82 159 -29 111 99 320 175 479 175 287 0 579 -200 690 -473 83 -205 76 -402 -24 -607 -44 -91 -62 -116 -142 -195 -77 -77 -106 -99 -186 -138 -134 -66 -200 -82 -345 -81 -94 0 -137 5 -200 23 -253 71 -444 263 -516 516 -28 98 -32 296 -7 382 l15 53 -55 42 c-30 24 -69 54 -87 68 -54 41 -263 203 -304 235 -21 17 -73 57 -116 90 -43 33 -97 74 -119 92 -23 18 -62 48 -88 68 -46 34 -48 34 -49 12 -3 -47 -6 -220 -14 -732 -7 -525 -7 -530 14 -584 12 -29 35 -72 51 -96 23 -34 515 -516 935 -917 l71 -67 46 32 c60 43 166 92 248 114 80 22 261 24 340 4 283 -72 499 -288 571 -571 19 -78 18 -259 -4 -340 -9 -36 -38 -108 -64 -160 -39 -80 -60 -109 -137 -185 -103 -103 -196 -158 -332 -197 -111 -32 -285 -32 -399 1 -253 71 -444 263 -516 516 -31 108 -32 297 -2 398 l21 68 -57 53 c-31 29 -221 209 -423 399 -202 191 -372 347 -378 347 -5 0 -10 -21 -10 -47 0 -27 -9 -527 -20 -1113 -11 -586 -20 -1072 -20 -1081 0 -11 11 -19 33 -23 41 -8 144 -57 205 -97 140 -94 245 -243 294 -416 31 -112 31 -287 0 -398 -38 -133 -95 -228 -197 -330 -149 -150 -311 -219 -520 -219 -135 -1 -192 12 -320 74 -166 80 -275 189 -355 355 -62 128 -75 185 -74 320 0 132 24 229 87 349 79 154 264 309 424 356 l41 13 6 91 c3 50 10 388 16 750 8 485 13 664 22 675 15 19 -32 -19 -139 -115 -17 -16 -55 -49 -84 -74 -29 -25 -65 -56 -80 -70 -15 -14 -49 -43 -75 -65 -26 -22 -60 -51 -75 -65 -15 -14 -51 -45 -80 -70 -29 -25 -65 -56 -80 -70 -15 -14 -51 -45 -80 -70 -29 -25 -73 -64 -98 -87 -25 -24 -49 -43 -53 -43 -3 0 2 -22 12 -49 55 -144 62 -318 20 -471 -69 -247 -264 -440 -515 -511 -114 -33 -288 -33 -399 -1 -136 39 -229 94 -332 197 -77 76 -98 105 -137 185 -26 52 -54 122 -62 155 -104 399 151 811 565 916 77 19 259 17 340 -4 36 -9 111 -40 168 -68 l102 -51 33 30 c71 66 108 99 159 142 29 25 67 59 84 75 18 17 61 55 95 85 35 30 83 73 108 95 24 22 67 60 94 85 28 25 65 59 83 75 17 17 74 68 125 115 187 170 240 230 278 313 21 46 23 67 27 350 7 362 11 530 13 537 1 3 13 -46 26 -108 28 -131 86 -283 151 -391 50 -84 158 -221 175 -221 6 0 -10 24 -36 53 -143 158 -236 354 -290 607 -22 106 -24 133 -21 343 2 125 0 227 -4 227 -4 0 -15 -12 -25 -26 -9 -14 -19 -23 -22 -20 -3 3 -14 -5 -24 -17 -10 -12 -18 -18 -19 -13 0 4 -9 -2 -20 -15 -10 -13 -19 -20 -20 -15 0 4 -9 -2 -20 -15 -10 -13 -19 -20 -20 -14 0 5 -7 -1 -16 -13 -8 -12 -20 -20 -25 -17 -5 4 -9 2 -9 -4 0 -5 -19 -24 -42 -43 -23 -18 -39 -26 -34 -18 4 8 -3 2 -18 -15 -14 -16 -25 -26 -26 -21 0 4 -9 -2 -20 -15 -10 -13 -19 -20 -20 -15 0 4 -9 -2 -20 -15 -10 -13 -19 -20 -20 -15 0 4 -9 -2 -20 -15 -10 -13 -19 -20 -20 -15 0 4 -9 -2 -20 -15 -10 -13 -19 -20 -20 -16 0 4 -12 -5 -26 -20 -14 -15 -23 -21 -19 -13 4 8 -4 2 -19 -15 -14 -16 -25 -26 -26 -21 0 4 -9 -2 -20 -15 -10 -13 -19 -20 -20 -15 0 4 -9 -2 -20 -15 -10 -13 -19 -20 -20 -15 0 4 -9 -2 -20 -15 -10 -13 -19 -20 -20 -14 0 5 -7 -1 -16 -13 -8 -12 -20 -20 -25 -17 -5 4 -9 2 -9 -4 0 -5 -19 -24 -42 -43 -23 -18 -39 -26 -34 -18 4 8 0 6 -8 -5 -9 -11 -14 -26 -11 -35 33 -85 49 -174 49 -280 0 -138 -19 -222 -74 -335 -72 -149 -186 -263 -335 -335 -113 -55 -197 -74 -335 -74 -214 0 -372 66 -525 219 -151 150 -219 311 -219 520 -1 129 16 202 73 320 95 199 283 353 501 412 184 49 447 -1 598 -114 32 -24 34 -24 53 -7 10 9 19 14 19 9 0 -4 9 3 20 16 10 13 19 20 20 15 0 -4 9 2 20 15 10 13 19 21 20 17 0 -3 14 7 31 23 18 16 34 27 37 25 2 -3 13 5 23 17 10 12 18 18 19 13 0 -4 9 2 20 15 10 13 19 20 20 15 0 -4 9 2 20 15 10 13 19 21 20 17 0 -3 14 7 31 23 18 16 34 27 37 25 2 -3 13 5 23 17 10 12 18 18 19 13 0 -4 9 2 20 15 10 13 19 20 20 15 0 -4 9 2 20 15 10 13 19 20 20 15 0 -4 9 2 20 15 10 13 19 20 20 15 0 -4 9 2 20 15 10 13 19 21 20 17 0 -3 14 7 31 23 18 16 34 27 37 25 2 -3 13 5 23 17 10 12 18 18 19 13 0 -4 9 2 20 15 10 13 19 20 20 15 0 -4 9 2 20 15 10 13 19 20 20 15 0 -4 9 2 20 15 10 13 19 20 20 14 0 -5 7 1 16 13 8 12 20 20 25 17 5 -4 9 -2 9 4 0 5 26 30 58 55 75 60 121 100 102 90 -8 -4 -4 6 10 22 14 16 28 30 33 32 4 2 5 7 2 12 -3 5 2 16 11 24 8 9 13 16 10 16 -4 0 0 15 7 33 11 25 15 130 18 475 2 243 7 442 12 442 4 0 7 70 7 155 0 116 -3 157 -12 159 -7 2 -49 9 -92 16 -362 55 -709 326 -875 681 -83 178 -115 320 -115 504 0 585 436 1081 1039 1181 97 16 272 11 373 -10z"/>
 <path d="M3921 9150 c-289 -61 -510 -269 -593 -556 -30 -103 -32 -294 -4 -394 58 -212 208 -393 401 -485 190 -91 415 -98 609 -19 203 82 375 278 437 499 30 105 33 306 6 405 -72 259 -277 465 -532 535 -71 19 -262 28 -324 15z m105 -237 l9 -47 80 -13 c107 -18 193 -60 266 -129 141 -135 177 -346 91 -527 -30 -63 -76 -126 -85 -117 -2 3 -27 42 -55 86 l-51 82 20 38 c23 47 25 130 4 201 -29 96 -145 193 -233 193 -27 0 -32 -3 -28 -17 11 -43 17 -83 11 -83 -5 0 -223 117 -233 126 -5 3 182 253 189 254 4 0 11 -21 15 -47z m-249 -278 l63 -84 -25 -36 c-27 -40 -40 -108 -32 -160 18 -111 127 -218 238 -232 l39 -6 0 52 c0 28 3 51 6 51 5 0 224 -118 233 -126 4 -4 -198 -248 -210 -252 -5 -2 -9 17 -9 41 0 40 -2 45 -20 40 -11 -3 -49 0 -83 7 -182 35 -334 191 -384 393 -25 105 -1 211 80 345 17 28 34 52 37 52 3 -1 33 -39 67 -85z"/>
 <path d="M4233 7213 c4 -3 10 -3 14 0 3 4 0 7 -7 7 -7 0 -10 -3 -7 -7z"/>
 <path d="M4280 5940 c0 -7 3 -10 7 -7 3 4 3 10 0 14 -4 3 -7 0 -7 -7z"/>
 <path d="M4250 5850 c0 -7 3 -10 7 -7 3 4 3 10 0 14 -4 3 -7 0 -7 -7z"/>
 <path d="M5725 5725 c-108 -28 -203 -95 -264 -186 -124 -185 -105 -426 46 -589 99 -107 225 -157 373 -147 182 12 343 131 411 305 33 82 33 242 0 324 -49 124 -157 232 -280 279 -73 28 -204 34 -286 14z"/>
 <path d="M4154 5668 c-4 -7 -3 -8 4 -4 12 7 16 16 8 16 -3 0 -8 -5 -12 -12z"/>
 <path d="M2238 4921 c-115 -38 -199 -101 -260 -195 -100 -155 -103 -348 -7 -501 43 -70 75 -102 143 -147 154 -100 348 -103 501 -7 70 43 102 75 147 143 156 240 66 551 -198 682 -69 34 -84 37 -172 41 -75 2 -110 -1 -154 -16z"/>
 <path d="M4261 4154 c0 -11 3 -14 6 -6 3 7 2 16 -1 19 -3 4 -6 -2 -5 -13z"/>
 <path d="M4250 4090 c0 -7 3 -10 7 -7 3 4 3 10 0 14 -4 3 -7 0 -7 -7z"/>
 <path d="M4240 4040 c0 -7 3 -10 7 -7 3 4 3 10 0 14 -4 3 -7 0 -7 -7z"/>
 <path d="M4230 4000 c0 -7 3 -10 7 -7 3 4 3 10 0 14 -4 3 -7 0 -7 -7z"/>
 <path d="M4180 3850 c0 -7 3 -10 7 -7 3 4 3 10 0 14 -4 3 -7 0 -7 -7z"/>
 <path d="M4104 3698 c-4 -7 -3 -8 4 -4 7 4 12 9 12 12 0 8 -9 4 -16 -8z"/>
 <path d="M4044 3608 c-4 -7 -3 -8 4 -4 12 7 16 16 8 16 -3 0 -8 -5 -12 -12z"/>
 <path d="M5728 3585 c-207 -52 -348 -234 -348 -449 0 -139 44 -251 135 -341 215 -216 594 -164 747 102 61 107 73 276 28 395 -46 122 -156 232 -279 279 -72 27 -204 34 -283 14z"/>
 <path d="M3999 3553 c-13 -16 -12 -17 4 -4 16 13 21 21 13 21 -2 0 -10 -8 -17 -17z"/>
 <path d="M2870 2965 c13 -14 26 -25 28 -25 3 0 -5 11 -18 25 -13 14 -26 25 -28 25 -3 0 5 -11 18 -25z"/>
 <path d="M2910 2926 c0 -2 8 -10 18 -17 15 -13 16 -12 3 4 -13 16 -21 21 -21 13z"/>
 <path d="M2251 2864 c-79 -21 -148 -62 -211 -124 -121 -121 -165 -279 -125 -449 48 -204 239 -351 455 -351 123 0 247 51 333 137 66 66 101 128 122 214 40 171 -3 329 -124 450 -119 119 -291 166 -450 123z"/>
 <path d="M2985 2830 c3 -5 8 -10 11 -10 3 0 2 5 -1 10 -3 6 -8 10 -11 10 -3 0 -2 -4 1 -10z"/>
 <path d="M3899 1662 c-106 -53 -175 -106 -225 -174 -69 -94 -88 -154 -88 -278 0 -124 19 -184 89 -279 135 -183 388 -243 594 -140 277 139 337 531 114 754 -62 63 -173 126 -247 142 -105 22 -152 17 -237 -25z"/>
 </g>
<g id="layer103" fill="#baab9b" stroke="none">
 <path d="M0 5120 l0 -5120 4070 0 4070 0 0 5120 0 5120 -4070 0 -4070 0 0 -5120z m4278 4456 c294 -63 547 -227 728 -471 294 -397 310 -919 42 -1352 -71 -116 -235 -283 -350 -357 -100 -65 -166 -97 -281 -136 l-82 -28 -8 -258 c-6 -180 -5 -275 3 -310 13 -61 60 -131 127 -188 50 -44 829 -656 851 -670 8 -5 31 10 65 39 111 99 320 175 479 175 287 0 579 -200 690 -473 83 -205 76 -402 -24 -607 -44 -91 -62 -116 -142 -195 -77 -77 -106 -99 -186 -138 -134 -66 -200 -82 -345 -81 -94 0 -137 5 -200 23 -253 71 -444 263 -516 516 -28 98 -32 296 -7 382 l15 52 -406 314 c-223 173 -408 313 -410 311 -5 -4 -8 -177 -16 -764 -7 -510 -7 -516 14 -569 12 -29 35 -72 51 -96 23 -34 515 -516 935 -917 l71 -67 46 32 c60 43 166 92 248 114 80 22 261 24 340 4 283 -72 499 -288 571 -571 19 -78 18 -259 -4 -340 -9 -36 -38 -108 -64 -160 -39 -80 -60 -109 -137 -185 -103 -103 -196 -158 -332 -197 -111 -32 -285 -32 -399 1 -253 71 -444 263 -516 516 -31 108 -32 297 -2 398 l21 68 -57 53 c-31 29 -221 209 -423 399 -202 191 -372 347 -378 347 -5 0 -10 -21 -10 -47 0 -27 -9 -527 -20 -1113 -11 -586 -20 -1072 -20 -1081 0 -11 11 -19 33 -23 41 -8 144 -57 205 -97 140 -94 245 -243 294 -416 31 -112 31 -287 0 -398 -38 -133 -95 -228 -197 -330 -149 -150 -311 -219 -520 -219 -135 -1 -192 12 -320 74 -166 80 -275 189 -355 355 -62 128 -75 185 -74 320 0 132 24 229 87 349 79 154 264 309 424 356 l41 13 6 91 c10 165 26 1390 18 1397 -4 4 -187 -150 -407 -343 -220 -192 -405 -352 -411 -354 -8 -4 -6 -20 7 -53 54 -144 61 -318 19 -471 -69 -247 -264 -440 -515 -511 -114 -33 -288 -33 -399 -1 -136 39 -229 94 -332 197 -77 76 -98 105 -137 185 -26 52 -54 122 -62 155 -104 399 151 811 565 916 77 19 259 17 340 -4 36 -9 110 -39 165 -67 97 -48 100 -49 120 -31 880 778 986 879 1033 978 25 54 27 70 33 248 4 105 8 296 8 426 1 130 4 238 7 242 7 7 5 467 -2 479 -3 5 -14 -2 -24 -14 -11 -13 -19 -19 -20 -14 0 4 -9 -2 -20 -15 -10 -13 -19 -20 -20 -15 0 4 -9 -2 -20 -15 -10 -13 -19 -20 -20 -15 0 4 -9 -2 -20 -15 -10 -13 -19 -20 -20 -14 0 5 -7 -1 -16 -13 -8 -12 -20 -20 -25 -17 -5 4 -9 2 -9 -4 0 -5 -19 -24 -42 -43 -23 -18 -39 -26 -34 -18 4 8 -3 2 -18 -15 -14 -16 -25 -26 -26 -21 0 4 -9 -2 -20 -15 -10 -13 -19 -20 -20 -15 0 4 -9 -2 -20 -15 -10 -13 -19 -20 -20 -15 0 4 -9 -2 -20 -15 -10 -13 -19 -20 -20 -15 0 4 -9 -2 -20 -15 -10 -13 -19 -20 -20 -16 0 4 -12 -5 -26 -20 -14 -15 -23 -21 -19 -13 4 8 -4 2 -19 -15 -14 -16 -25 -26 -26 -21 0 4 -9 -2 -20 -15 -10 -13 -19 -20 -20 -15 0 4 -9 -2 -20 -15 -10 -13 -19 -20 -20 -15 0 4 -9 -2 -20 -15 -10 -13 -19 -20 -20 -14 0 5 -7 -1 -16 -13 -8 -12 -20 -20 -25 -17 -5 4 -9 2 -9 -4 0 -5 -19 -24 -42 -43 -23 -18 -39 -26 -34 -18 4 8 0 6 -8 -5 -9 -11 -14 -26 -11 -35 33 -85 49 -174 49 -280 0 -138 -19 -222 -74 -335 -72 -149 -186 -263 -335 -335 -113 -55 -197 -74 -335 -74 -214 0 -372 66 -525 219 -151 150 -219 311 -219 520 -1 129 16 202 73 320 95 199 283 353 501 412 184 49 447 -1 598 -114 32 -24 34 -24 53 -7 10 9 19 14 19 9 0 -4 9 3 20 16 10 13 19 20 20 15 0 -4 9 2 20 15 10 13 19 21 20 17 0 -3 14 7 31 23 18 16 34 27 37 25 2 -3 13 5 23 17 10 12 18 18 19 13 0 -4 9 2 20 15 10 13 19 20 20 15 0 -4 9 2 20 15 10 13 19 21 20 17 0 -3 14 7 31 23 18 16 34 27 37 25 2 -3 13 5 23 17 10 12 18 18 19 13 0 -4 9 2 20 15 10 13 19 20 20 15 0 -4 9 2 20 15 10 13 19 20 20 15 0 -4 9 2 20 15 10 13 19 20 20 15 0 -4 9 2 20 15 10 13 19 21 20 17 0 -3 14 7 31 23 18 16 34 27 37 25 2 -3 13 5 23 17 10 12 18 18 19 13 0 -4 9 2 20 15 10 13 19 20 20 15 0 -4 9 2 20 15 10 13 19 20 20 15 0 -4 9 2 20 15 10 13 19 20 20 14 0 -5 7 1 16 13 8 12 20 20 25 17 5 -4 9 -2 9 4 0 5 26 30 58 55 75 60 121 100 102 90 -8 -4 -4 6 10 22 14 16 28 30 33 32 4 2 5 7 2 12 -3 5 2 16 11 24 8 9 13 16 10 16 -4 0 0 15 7 33 11 25 15 130 18 475 2 243 7 442 12 442 4 0 7 70 7 155 0 116 -3 157 -12 159 -7 2 -49 9 -92 16 -362 55 -709 326 -875 681 -83 178 -115 320 -115 504 0 585 436 1081 1039 1181 97 16 272 11 373 -10z"/>
 <path d="M3921 9150 c-289 -61 -510 -269 -593 -556 -30 -103 -32 -294 -4 -394 58 -212 208 -393 401 -485 190 -91 415 -98 609 -19 203 82 375 278 437 499 30 105 33 306 6 405 -72 259 -277 465 -532 535 -71 19 -262 28 -324 15z m105 -237 l9 -47 80 -13 c107 -18 193 -60 266 -129 141 -135 177 -346 91 -527 -30 -63 -76 -126 -85 -117 -2 3 -27 42 -55 86 l-51 82 20 38 c23 47 25 130 4 201 -29 96 -145 193 -233 193 -27 0 -32 -3 -28 -17 11 -43 17 -83 11 -83 -5 0 -223 117 -233 126 -5 3 182 253 189 254 4 0 11 -21 15 -47z m-249 -278 l63 -84 -25 -36 c-27 -40 -40 -108 -32 -160 18 -111 127 -218 238 -232 l39 -6 0 52 c0 28 3 51 6 51 5 0 224 -118 233 -126 4 -4 -198 -248 -210 -252 -5 -2 -9 17 -9 41 0 40 -2 45 -20 40 -11 -3 -49 0 -83 7 -182 35 -334 191 -384 393 -25 105 -1 211 80 345 17 28 34 52 37 52 3 -1 33 -39 67 -85z"/>
 <path d="M5725 5725 c-108 -28 -203 -95 -264 -186 -124 -185 -105 -426 46 -589 99 -107 225 -157 373 -147 182 12 343 131 411 305 33 82 33 242 0 324 -49 124 -157 232 -280 279 -73 28 -204 34 -286 14z"/>
 <path d="M2238 4921 c-115 -38 -199 -101 -260 -195 -100 -155 -103 -348 -7 -501 43 -70 75 -102 143 -147 154 -100 348 -103 501 -7 70 43 102 75 147 143 156 240 66 551 -198 682 -69 34 -84 37 -172 41 -75 2 -110 -1 -154 -16z"/>
 <path d="M5728 3585 c-207 -52 -348 -234 -348 -449 0 -139 44 -251 135 -341 215 -216 594 -164 747 102 61 107 73 276 28 395 -46 122 -156 232 -279 279 -72 27 -204 34 -283 14z"/>
 <path d="M2251 2864 c-79 -21 -148 -62 -211 -124 -121 -121 -165 -279 -125 -449 48 -204 239 -351 455 -351 123 0 247 51 333 137 66 66 101 128 122 214 40 171 -3 329 -124 450 -119 119 -291 166 -450 123z"/>
 <path d="M3899 1662 c-106 -53 -175 -106 -225 -174 -69 -94 -88 -154 -88 -278 0 -124 19 -184 89 -279 135 -183 388 -243 594 -140 277 139 337 531 114 754 -62 63 -173 126 -247 142 -105 22 -152 17 -237 -25z"/>
 </g>
<g id="layer104" fill="#adbbc2" stroke="none">
 <path d="M0 5120 l0 -5120 4070 0 4070 0 0 5120 0 5120 -4070 0 -4070 0 0 -5120z m4278 4456 c294 -63 547 -227 728 -471 294 -397 310 -919 42 -1352 -71 -116 -235 -283 -350 -357 -100 -65 -166 -97 -281 -136 l-82 -28 -8 -258 c-6 -180 -5 -275 3 -310 13 -61 60 -131 127 -188 50 -44 829 -656 851 -670 8 -5 31 10 65 39 111 99 320 175 479 175 287 0 579 -200 690 -473 83 -205 76 -402 -24 -607 -44 -91 -62 -116 -142 -195 -77 -77 -106 -99 -186 -138 -134 -66 -200 -82 -345 -81 -94 0 -137 5 -200 23 -253 71 -444 263 -516 516 -28 98 -32 296 -7 382 l15 52 -406 314 c-223 173 -408 313 -410 311 -5 -4 -8 -177 -16 -764 -7 -510 -7 -516 14 -569 12 -29 35 -72 51 -96 23 -34 515 -516 935 -917 l71 -67 46 32 c60 43 166 92 248 114 80 22 261 24 340 4 283 -72 499 -288 571 -571 19 -78 18 -259 -4 -340 -9 -36 -38 -108 -64 -160 -39 -80 -60 -109 -137 -185 -103 -103 -196 -158 -332 -197 -111 -32 -285 -32 -399 1 -253 71 -444 263 -516 516 -31 108 -32 297 -2 398 l21 68 -57 53 c-31 29 -221 209 -423 399 -202 191 -372 347 -378 347 -5 0 -10 -21 -10 -47 0 -27 -9 -527 -20 -1113 -11 -586 -20 -1072 -20 -1081 0 -11 11 -19 33 -23 41 -8 144 -57 205 -97 140 -94 245 -243 294 -416 31 -112 31 -287 0 -398 -38 -133 -95 -228 -197 -330 -149 -150 -311 -219 -520 -219 -135 -1 -192 12 -320 74 -166 80 -275 189 -355 355 -62 128 -75 185 -74 320 0 132 24 229 87 349 79 154 264 309 424 356 l41 13 6 91 c10 165 26 1390 18 1397 -4 4 -187 -150 -407 -343 -220 -192 -405 -352 -411 -354 -8 -4 -6 -20 7 -53 54 -144 61 -318 19 -471 -69 -247 -264 -440 -515 -511 -114 -33 -288 -33 -399 -1 -136 39 -229 94 -332 197 -77 76 -98 105 -137 185 -26 52 -54 122 -62 155 -104 399 151 811 565 916 78 19 259 18 340 -4 36 -9 108 -38 160 -64 52 -26 98 -48 102 -48 9 0 117 94 498 435 348 311 504 461 536 515 53 92 52 81 65 769 6 355 9 653 5 662 -5 14 -9 13 -26 -7 -11 -13 -19 -20 -20 -15 0 4 -9 -2 -20 -15 -10 -13 -19 -20 -20 -15 0 4 -9 -2 -20 -15 -10 -13 -19 -20 -20 -15 0 4 -9 -2 -20 -15 -10 -13 -19 -20 -20 -14 0 5 -7 -1 -16 -13 -8 -12 -20 -20 -25 -17 -5 4 -9 2 -9 -4 0 -5 -19 -24 -42 -43 -23 -18 -39 -26 -34 -18 4 8 -3 2 -18 -15 -14 -16 -25 -26 -26 -21 0 4 -9 -2 -20 -15 -10 -13 -19 -20 -20 -15 0 4 -9 -2 -20 -15 -10 -13 -19 -20 -20 -15 0 4 -9 -2 -20 -15 -10 -13 -19 -20 -20 -15 0 4 -9 -2 -20 -15 -10 -13 -19 -20 -20 -16 0 4 -12 -5 -26 -20 -14 -15 -23 -21 -19 -13 4 8 -4 2 -19 -15 -14 -16 -25 -26 -26 -21 0 4 -9 -2 -20 -15 -10 -13 -19 -20 -20 -15 0 4 -9 -2 -20 -15 -10 -13 -19 -20 -20 -15 0 4 -9 -2 -20 -15 -10 -13 -19 -20 -20 -14 0 5 -7 -1 -16 -13 -8 -12 -20 -20 -25 -17 -5 4 -9 2 -9 -4 0 -5 -19 -24 -42 -43 -23 -18 -39 -26 -34 -18 4 8 0 6 -8 -5 -9 -11 -14 -26 -11 -35 33 -85 49 -174 49 -280 0 -138 -19 -222 -74 -335 -72 -149 -186 -263 -335 -335 -113 -55 -197 -74 -335 -74 -214 0 -372 66 -525 219 -151 150 -219 311 -219 520 -1 129 16 202 73 320 95 199 283 353 501 412 184 49 447 -1 598 -114 32 -24 34 -24 53 -7 10 9 19 14 19 9 0 -4 9 3 20 16 10 13 19 20 20 15 0 -4 9 2 20 15 10 13 19 21 20 17 0 -3 14 7 31 23 18 16 34 27 37 25 2 -3 13 5 23 17 10 12 18 18 19 13 0 -4 9 2 20 15 10 13 19 20 20 15 0 -4 9 2 20 15 10 13 19 21 20 17 0 -3 14 7 31 23 18 16 34 27 37 25 2 -3 13 5 23 17 10 12 18 18 19 13 0 -4 9 2 20 15 10 13 19 20 20 15 0 -4 9 2 20 15 10 13 19 20 20 15 0 -4 9 2 20 15 10 13 19 20 20 15 0 -4 9 2 20 15 10 13 19 21 20 17 0 -3 14 7 31 23 18 16 34 27 37 25 2 -3 13 5 23 17 10 12 18 18 19 13 0 -4 9 2 20 15 10 13 19 20 20 15 0 -4 9 2 20 15 10 13 19 20 20 15 0 -4 9 2 20 15 10 13 19 20 20 14 0 -5 7 1 16 13 8 12 20 20 25 17 5 -4 9 -2 9 4 0 5 26 30 58 55 75 60 121 100 102 90 -8 -4 -4 6 10 22 14 16 28 30 33 32 4 2 5 7 2 12 -3 5 2 16 11 24 8 9 13 16 10 16 -4 0 0 15 7 33 11 25 15 130 18 475 2 243 7 442 12 442 4 0 7 70 7 155 0 116 -3 157 -12 159 -7 2 -49 9 -92 16 -362 55 -709 326 -875 681 -83 178 -115 320 -115 504 0 585 436 1081 1039 1181 97 16 272 11 373 -10z"/>
 <path d="M3921 9150 c-289 -61 -510 -269 -593 -556 -30 -103 -32 -294 -4 -394 58 -212 208 -393 401 -485 190 -91 415 -98 609 -19 203 82 375 278 437 499 30 105 33 306 6 405 -72 259 -277 465 -532 535 -71 19 -262 28 -324 15z m105 -237 l9 -47 80 -13 c107 -18 193 -60 266 -129 141 -135 177 -346 91 -527 -30 -63 -76 -126 -85 -117 -2 3 -27 42 -55 86 l-51 82 20 38 c23 47 25 130 4 201 -29 96 -145 193 -233 193 -27 0 -32 -3 -28 -17 11 -43 17 -83 11 -83 -5 0 -223 117 -233 126 -5 3 182 253 189 254 4 0 11 -21 15 -47z m-249 -278 l63 -84 -25 -36 c-27 -40 -40 -108 -32 -160 18 -111 127 -218 238 -232 l39 -6 0 52 c0 28 3 51 6 51 5 0 224 -118 233 -126 4 -4 -198 -248 -210 -252 -5 -2 -9 17 -9 41 0 40 -2 45 -20 40 -11 -3 -49 0 -83 7 -182 35 -334 191 -384 393 -25 105 -1 211 80 345 17 28 34 52 37 52 3 -1 33 -39 67 -85z"/>
 <path d="M5725 5725 c-108 -28 -203 -95 -264 -186 -124 -185 -105 -426 46 -589 99 -107 225 -157 373 -147 182 12 343 131 411 305 33 82 33 242 0 324 -49 124 -157 232 -280 279 -73 28 -204 34 -286 14z"/>
 <path d="M2238 4921 c-115 -38 -199 -101 -260 -195 -100 -155 -103 -348 -7 -501 43 -70 75 -102 143 -147 154 -100 348 -103 501 -7 70 43 102 75 147 143 156 240 66 551 -198 682 -69 34 -84 37 -172 41 -75 2 -110 -1 -154 -16z"/>
 <path d="M5728 3585 c-207 -52 -348 -234 -348 -449 0 -139 44 -251 135 -341 215 -216 594 -164 747 102 61 107 73 276 28 395 -46 122 -156 232 -279 279 -72 27 -204 34 -283 14z"/>
 <path d="M2251 2864 c-79 -21 -148 -62 -211 -124 -121 -121 -165 -279 -125 -449 48 -204 239 -351 455 -351 123 0 247 51 333 137 66 66 101 128 122 214 40 171 -3 329 -124 450 -119 119 -291 166 -450 123z"/>
 <path d="M3899 1662 c-106 -53 -175 -106 -225 -174 -69 -94 -88 -154 -88 -278 0 -124 19 -184 89 -279 135 -183 388 -243 594 -140 277 139 337 531 114 754 -62 63 -173 126 -247 142 -105 22 -152 17 -237 -25z"/>
 </g>

</svg>